<svg id="svg" version="1.1" xmlns="http://www.w3.org/2000/svg" xmlns:xlink="http://www.w3.org/1999/xlink" width="400" height="257.6561163387511" viewBox="0, 0, 400,257.6561163387511"><g id="svgg"><path id="path0" d="M98.283 72.626 C 97.977 73.299,97.645 74.282,97.546 74.811 C 97.447 75.340,97.271 75.773,97.155 75.773 C 97.039 75.773,96.801 76.411,96.627 77.191 C 96.452 77.970,96.227 78.608,96.127 78.608 C 96.026 78.608,95.790 79.159,95.602 79.832 C 95.414 80.506,95.110 81.347,94.925 81.701 C 94.741 82.055,94.519 82.722,94.431 83.183 C 94.344 83.644,94.157 84.021,94.016 84.021 C 93.875 84.021,93.826 84.195,93.908 84.407 C 93.989 84.620,93.954 84.794,93.829 84.794 C 93.704 84.794,93.524 85.258,93.428 85.825 C 93.332 86.392,93.161 86.856,93.047 86.856 C 92.934 86.856,92.769 87.233,92.682 87.693 C 92.595 88.154,92.350 88.862,92.139 89.267 C 91.928 89.671,91.820 90.106,91.898 90.233 C 91.977 90.360,91.932 90.464,91.798 90.464 C 91.571 90.464,90.847 92.685,90.938 93.106 C 90.961 93.212,90.872 93.299,90.740 93.299 C 90.609 93.299,90.358 93.937,90.184 94.716 C 90.009 95.496,89.790 96.134,89.696 96.134 C 89.603 96.134,89.368 96.714,89.175 97.423 C 88.982 98.131,88.748 98.711,88.654 98.711 C 88.561 98.711,88.331 99.349,88.144 100.129 C 87.957 100.909,87.732 101.546,87.644 101.546 C 87.556 101.546,87.322 102.095,87.124 102.765 C 86.926 103.435,86.611 104.276,86.425 104.634 C 86.238 104.991,86.014 105.660,85.926 106.121 C 85.839 106.582,85.683 106.959,85.579 106.959 C 85.476 106.959,85.249 107.597,85.074 108.376 C 84.900 109.156,84.662 109.794,84.546 109.794 C 84.430 109.794,84.256 110.229,84.159 110.760 C 84.062 111.292,83.821 111.977,83.625 112.283 C 83.428 112.589,83.133 113.371,82.969 114.022 C 82.805 114.674,82.587 115.206,82.485 115.206 C 82.382 115.206,82.156 115.844,81.981 116.624 C 81.807 117.403,81.578 118.041,81.474 118.041 C 81.369 118.041,81.128 118.650,80.938 119.394 C 80.748 120.139,80.445 120.979,80.264 121.263 C 80.083 121.546,79.856 122.213,79.758 122.745 C 79.661 123.276,79.487 123.711,79.371 123.711 C 79.255 123.711,79.018 124.349,78.843 125.129 C 78.669 125.909,78.439 126.546,78.333 126.546 C 78.227 126.546,77.992 127.126,77.810 127.835 C 77.628 128.544,77.394 129.124,77.289 129.124 C 77.185 129.124,76.956 129.762,76.782 130.541 C 76.607 131.321,76.389 131.959,76.296 131.959 C 76.204 131.959,75.976 132.568,75.789 133.312 C 75.602 134.056,75.359 134.781,75.249 134.923 C 74.999 135.244,74.156 137.807,74.222 138.042 C 74.249 138.138,74.165 138.287,74.036 138.373 C 73.816 138.522,73.499 139.339,72.477 142.397 C 72.240 143.106,71.980 143.744,71.900 143.814 C 71.710 143.982,71.026 146.204,71.087 146.456 C 71.113 146.563,71.037 146.649,70.917 146.649 C 70.798 146.649,70.548 147.287,70.361 148.067 C 70.174 148.847,69.945 149.485,69.853 149.485 C 69.761 149.485,69.536 150.064,69.355 150.773 C 69.173 151.482,68.938 152.062,68.832 152.062 C 68.726 152.062,68.486 152.700,68.299 153.479 C 68.112 154.259,67.880 154.897,67.783 154.897 C 67.687 154.897,67.465 155.535,67.291 156.314 C 67.116 157.094,66.876 157.732,66.757 157.732 C 66.638 157.732,66.461 158.198,66.365 158.768 C 66.269 159.338,66.041 159.953,65.858 160.136 C 65.676 160.318,65.442 160.867,65.337 161.355 C 65.233 161.843,64.929 162.729,64.662 163.323 C 64.394 163.918,64.175 164.523,64.175 164.669 C 64.175 164.814,63.951 165.371,63.676 165.907 C 63.402 166.443,63.099 167.316,63.003 167.848 C 62.908 168.380,62.735 168.814,62.621 168.814 C 62.506 168.814,62.332 169.191,62.234 169.652 C 62.135 170.113,61.836 170.976,61.569 171.571 C 61.301 172.166,61.082 172.728,61.082 172.821 C 61.082 172.913,60.628 173.934,60.072 175.090 C 59.516 176.245,58.981 177.510,58.884 177.899 C 58.787 178.289,58.615 178.608,58.502 178.608 C 58.390 178.608,58.176 178.927,58.027 179.317 C 56.976 182.070,53.236 186.334,51.869 186.339 C 51.691 186.340,51.546 186.453,51.546 186.590 C 51.546 186.727,51.372 186.773,51.160 186.691 C 50.947 186.610,50.773 186.658,50.773 186.799 C 50.773 186.940,50.251 187.133,49.613 187.229 C 48.976 187.324,48.454 187.524,48.454 187.673 C 48.454 187.832,48.189 187.876,47.809 187.781 C 47.438 187.688,47.165 187.730,47.165 187.882 C 47.165 188.026,46.991 188.144,46.778 188.144 C 46.472 188.144,46.392 188.517,46.392 189.948 L 46.392 191.753 62.629 191.753 L 78.866 191.753 78.866 189.948 L 78.866 188.144 78.093 188.144 C 77.668 188.144,77.320 188.046,77.320 187.925 C 77.320 187.805,76.885 187.694,76.353 187.679 C 74.889 187.637,71.907 187.057,71.907 186.813 C 71.907 186.695,71.753 186.598,71.565 186.598 C 70.833 186.598,68.814 184.967,68.026 183.739 C 67.166 182.400,66.971 178.454,67.717 177.514 C 67.859 177.336,68.126 176.408,68.313 175.451 C 68.499 174.494,68.734 173.711,68.836 173.711 C 68.938 173.711,69.165 173.102,69.342 172.358 C 69.518 171.614,69.738 170.947,69.831 170.876 C 70.040 170.717,70.876 168.114,70.876 167.625 C 70.876 167.429,70.984 167.268,71.116 167.268 C 71.247 167.268,71.498 166.630,71.672 165.851 C 71.846 165.071,72.078 164.433,72.187 164.433 C 72.297 164.433,72.528 163.795,72.703 163.015 C 72.877 162.236,73.107 161.598,73.213 161.598 C 73.319 161.598,73.555 161.018,73.736 160.309 C 73.918 159.601,74.152 159.021,74.257 159.021 C 74.362 159.021,74.590 158.383,74.765 157.603 C 74.939 156.823,75.170 156.186,75.278 156.186 C 75.386 156.186,75.554 155.809,75.651 155.348 C 75.748 154.887,76.003 154.133,76.216 153.673 L 76.605 152.835 96.035 152.835 C 114.481 152.835,115.464 152.858,115.464 153.293 C 115.464 153.545,115.619 153.980,115.808 154.260 C 115.997 154.539,116.302 155.319,116.486 155.992 C 116.669 156.666,116.905 157.216,117.009 157.216 C 117.113 157.216,117.345 157.912,117.526 158.763 C 117.706 159.613,117.946 160.309,118.058 160.309 C 118.170 160.309,118.405 160.947,118.579 161.727 C 118.754 162.506,118.983 163.144,119.089 163.144 C 119.195 163.144,119.431 163.724,119.613 164.433 C 119.794 165.142,120.018 165.722,120.111 165.722 C 120.203 165.722,120.422 166.360,120.596 167.139 C 120.771 167.919,121.005 168.557,121.117 168.557 C 121.230 168.557,121.469 169.253,121.649 170.103 C 121.830 170.954,122.062 171.649,122.165 171.649 C 122.268 171.649,122.500 172.345,122.680 173.196 C 122.861 174.046,123.092 174.742,123.195 174.742 C 123.297 174.742,123.529 175.641,123.711 176.740 C 123.892 177.838,124.140 178.847,124.263 178.982 C 124.554 179.304,124.551 182.732,124.259 182.732 C 124.135 182.732,123.969 183.052,123.891 183.443 C 123.813 183.834,123.451 184.501,123.086 184.925 C 122.722 185.349,122.423 185.783,122.423 185.889 C 122.423 185.995,122.245 186.082,122.028 186.082 C 121.811 186.082,121.574 186.237,121.501 186.426 C 121.429 186.615,121.230 186.784,121.058 186.801 C 120.887 186.818,120.110 187.024,119.330 187.259 C 118.550 187.494,117.487 187.702,116.967 187.722 C 116.447 187.742,115.935 187.845,115.829 187.951 C 115.723 188.057,115.307 188.144,114.905 188.144 L 114.175 188.144 114.175 189.948 L 114.175 191.753 158.620 191.753 C 201.151 191.753,208.700 191.641,210.180 190.992 C 210.464 190.867,211.769 190.623,213.080 190.449 C 214.391 190.274,215.464 190.051,215.464 189.952 C 215.464 189.854,216.276 189.628,217.268 189.451 C 218.260 189.274,219.072 189.041,219.072 188.935 C 219.072 188.829,219.710 188.599,220.490 188.425 C 221.269 188.250,221.907 188.022,221.907 187.917 C 221.907 187.812,222.487 187.578,223.196 187.396 C 223.905 187.214,224.485 186.961,224.485 186.832 C 224.485 186.703,224.620 186.598,224.786 186.598 C 225.206 186.598,228.404 185.025,228.820 184.615 C 229.007 184.430,229.327 184.278,229.531 184.278 C 229.735 184.278,230.101 184.046,230.343 183.763 C 230.586 183.479,230.927 183.247,231.101 183.247 C 231.275 183.247,231.510 183.102,231.624 182.925 C 231.737 182.748,232.228 182.381,232.714 182.110 C 234.646 181.032,240.977 175.043,240.979 174.291 C 240.979 174.114,241.084 173.969,241.213 173.969 C 241.497 173.969,244.072 170.536,244.072 170.157 C 244.072 170.009,244.167 169.850,244.283 169.802 C 244.595 169.676,247.165 165.413,247.165 165.024 C 247.165 164.841,247.276 164.691,247.412 164.691 C 247.548 164.691,247.799 164.227,247.969 163.660 C 248.138 163.093,248.362 162.629,248.466 162.629 C 248.570 162.629,248.809 162.107,248.997 161.469 C 249.185 160.831,249.416 160.309,249.509 160.309 C 249.602 160.309,249.894 159.555,250.158 158.634 C 250.422 157.713,250.710 156.959,250.799 156.959 C 250.888 156.959,251.110 156.234,251.292 155.348 C 251.474 154.462,251.714 153.619,251.825 153.474 C 251.937 153.329,252.171 152.430,252.347 151.476 C 252.523 150.523,252.748 149.742,252.849 149.742 C 252.949 149.742,253.181 148.380,253.363 146.714 C 253.546 145.048,253.789 143.622,253.903 143.545 C 254.601 143.075,254.602 121.114,253.905 120.627 C 253.797 120.551,253.559 119.098,253.376 117.397 C 253.194 115.696,252.961 114.246,252.859 114.175 C 252.757 114.104,252.525 113.061,252.345 111.856 C 252.164 110.651,251.928 109.549,251.820 109.407 C 251.712 109.265,251.474 108.425,251.292 107.539 C 251.110 106.653,250.884 105.928,250.790 105.928 C 250.696 105.928,250.481 105.261,250.312 104.446 C 250.143 103.631,249.788 102.558,249.522 102.062 C 249.256 101.566,248.955 100.783,248.854 100.322 C 248.753 99.861,248.587 99.485,248.485 99.485 C 248.383 99.485,248.144 99.050,247.954 98.518 C 247.763 97.986,247.537 97.494,247.451 97.423 C 247.364 97.352,247.008 96.714,246.658 96.005 C 246.308 95.296,245.380 93.746,244.596 92.559 C 243.812 91.372,243.034 90.164,242.867 89.873 C 242.700 89.583,242.381 89.244,242.158 89.119 C 241.935 88.994,241.753 88.765,241.753 88.609 C 241.753 87.635,233.054 79.639,231.994 79.639 C 231.847 79.639,231.634 79.494,231.521 79.317 C 231.407 79.140,230.909 78.791,230.412 78.541 C 229.916 78.291,229.162 77.872,228.737 77.609 C 228.312 77.346,227.877 77.180,227.771 77.240 C 227.664 77.301,227.577 77.227,227.577 77.077 C 227.577 76.927,227.428 76.804,227.245 76.804 C 227.063 76.804,226.468 76.577,225.924 76.300 C 225.380 76.023,224.312 75.656,223.550 75.486 C 222.788 75.315,222.165 75.093,222.165 74.993 C 222.165 74.892,221.453 74.669,220.583 74.498 C 219.713 74.327,218.814 74.088,218.586 73.968 C 218.065 73.693,215.364 73.196,214.390 73.196 C 213.988 73.196,213.660 73.099,213.660 72.980 C 213.660 72.755,208.887 72.164,207.075 72.165 C 206.501 72.165,205.886 72.020,205.709 71.843 C 205.455 71.589,199.653 71.521,178.438 71.521 L 151.489 71.521 151.489 73.325 L 151.488 75.129 154.803 75.295 C 158.392 75.474,160.047 75.809,161.120 76.573 C 161.497 76.842,161.875 77.062,161.960 77.062 C 162.345 77.062,164.245 79.250,164.496 79.982 C 164.649 80.431,164.862 80.858,164.968 80.929 C 165.218 81.097,165.722 84.719,165.722 86.344 C 165.722 87.034,165.838 87.670,165.979 87.758 C 166.150 87.863,166.237 102.795,166.237 131.716 C 166.237 160.744,166.150 175.515,165.979 175.515 C 165.838 175.515,165.722 176.149,165.722 176.922 C 165.722 178.731,165.205 182.216,164.938 182.216 C 164.824 182.216,164.657 182.559,164.565 182.977 C 164.393 183.760,162.140 186.340,161.628 186.340 C 161.470 186.340,161.340 186.439,161.340 186.559 C 161.340 186.806,158.952 187.629,158.233 187.629 C 157.974 187.629,157.691 187.745,157.603 187.887 C 157.387 188.236,153.351 188.225,153.351 187.875 C 153.351 187.727,153.206 187.633,153.028 187.666 C 151.948 187.864,147.890 186.459,146.755 185.493 C 145.871 184.741,143.814 182.737,143.814 182.628 C 143.814 182.467,142.182 179.802,141.984 179.639 C 141.898 179.568,141.685 179.075,141.512 178.544 C 141.339 178.012,141.103 177.577,140.987 177.577 C 140.872 177.577,140.698 177.262,140.602 176.877 C 140.505 176.492,140.133 175.535,139.775 174.751 C 138.623 172.225,138.445 171.791,138.265 171.070 C 138.168 170.680,138.001 170.361,137.894 170.361 C 137.787 170.361,137.552 169.665,137.371 168.814 C 137.191 167.964,136.951 167.268,136.839 167.268 C 136.727 167.268,136.492 166.630,136.318 165.851 C 136.143 165.071,135.924 164.433,135.830 164.433 C 135.737 164.433,135.502 163.853,135.309 163.144 C 135.116 162.436,134.882 161.856,134.788 161.856 C 134.695 161.856,134.475 161.218,134.301 160.438 C 134.126 159.659,133.892 159.021,133.780 159.021 C 133.667 159.021,133.428 158.325,133.247 157.474 C 133.067 156.624,132.833 155.928,132.727 155.928 C 132.622 155.928,132.397 155.378,132.228 154.707 C 132.059 154.036,131.834 153.369,131.728 153.225 C 131.623 153.081,131.375 152.442,131.178 151.804 C 130.982 151.166,130.748 150.586,130.658 150.515 C 130.569 150.445,130.352 149.807,130.177 149.098 C 130.002 148.389,129.703 147.461,129.513 147.036 C 129.323 146.611,129.027 145.799,128.855 145.232 C 128.682 144.665,128.456 144.085,128.352 143.943 C 128.249 143.802,128.081 143.342,127.981 142.921 C 127.880 142.501,127.574 141.666,127.301 141.067 C 127.028 140.467,126.803 139.825,126.803 139.640 C 126.802 139.455,126.646 139.006,126.456 138.643 C 126.266 138.279,126.026 137.641,125.922 137.225 C 125.818 136.809,125.575 136.121,125.382 135.696 C 125.188 135.271,124.903 134.430,124.747 133.827 C 124.592 133.225,124.366 132.732,124.246 132.732 C 124.125 132.732,123.945 132.297,123.846 131.765 C 123.746 131.234,123.443 130.312,123.173 129.718 C 122.902 129.123,122.680 128.503,122.680 128.339 C 122.680 128.176,122.516 127.676,122.316 127.230 C 122.116 126.783,121.811 125.954,121.638 125.387 C 121.466 124.820,121.242 124.240,121.140 124.098 C 121.039 123.956,120.807 123.289,120.625 122.616 C 120.443 121.943,120.209 121.392,120.105 121.392 C 120.001 121.392,119.768 120.696,119.588 119.845 C 119.407 118.995,119.169 118.299,119.057 118.299 C 118.946 118.299,118.775 117.922,118.677 117.461 C 118.579 117.001,118.277 116.131,118.006 115.528 C 117.735 114.926,117.443 114.085,117.358 113.660 C 117.273 113.235,117.121 112.887,117.019 112.887 C 116.918 112.887,116.692 112.249,116.517 111.469 C 116.343 110.689,116.108 110.052,115.996 110.052 C 115.884 110.052,115.644 109.356,115.464 108.505 C 115.283 107.655,115.049 106.959,114.944 106.959 C 114.838 106.959,114.614 106.409,114.445 105.738 C 114.275 105.067,114.047 104.400,113.936 104.256 C 113.825 104.112,113.577 103.444,113.383 102.771 C 113.190 102.097,112.960 101.546,112.871 101.546 C 112.783 101.546,112.568 100.909,112.394 100.129 C 112.219 99.349,111.987 98.711,111.878 98.711 C 111.769 98.711,111.532 98.044,111.350 97.229 C 111.169 96.414,110.912 95.679,110.780 95.595 C 110.648 95.511,110.371 94.799,110.166 94.012 C 109.960 93.226,109.619 92.250,109.408 91.845 C 109.197 91.440,109.022 90.934,109.021 90.722 C 109.019 90.509,108.862 90.037,108.672 89.674 C 108.482 89.310,108.243 88.676,108.140 88.265 C 108.036 87.854,107.742 87.050,107.485 86.478 C 107.227 85.906,106.937 85.061,106.839 84.601 C 106.740 84.140,106.566 83.763,106.452 83.763 C 106.337 83.763,106.162 83.328,106.062 82.796 C 105.963 82.265,105.660 81.343,105.389 80.749 C 105.118 80.154,104.897 79.534,104.897 79.370 C 104.897 79.207,104.730 78.707,104.525 78.261 C 104.321 77.814,104.027 76.956,103.871 76.353 C 103.716 75.751,103.490 75.258,103.369 75.258 C 103.249 75.258,103.070 74.832,102.973 74.311 C 102.875 73.791,102.603 72.921,102.368 72.378 L 101.940 71.392 100.390 71.397 L 98.840 71.402 98.283 72.626 M299.141 71.564 C 299.046 71.658,298.969 71.948,298.969 72.208 C 298.969 72.468,298.872 72.680,298.753 72.680 C 298.633 72.680,298.383 73.318,298.196 74.098 C 298.009 74.878,297.777 75.515,297.680 75.515 C 297.584 75.515,297.352 76.153,297.165 76.933 C 296.978 77.713,296.743 78.351,296.642 78.351 C 296.541 78.351,296.305 78.901,296.117 79.575 C 295.929 80.248,295.625 81.089,295.441 81.443 C 295.257 81.798,295.034 82.465,294.947 82.925 C 294.860 83.386,294.698 83.763,294.588 83.763 C 294.477 83.763,294.308 84.185,294.211 84.700 C 294.115 85.215,293.812 86.054,293.538 86.565 C 293.265 87.075,293.037 87.668,293.032 87.883 C 293.028 88.098,292.800 88.737,292.526 89.304 C 292.252 89.871,292.024 90.472,292.019 90.640 C 292.014 90.808,291.875 91.272,291.710 91.671 C 291.544 92.070,291.398 92.455,291.384 92.526 C 291.370 92.597,291.290 92.771,291.206 92.912 C 291.123 93.054,290.896 93.721,290.703 94.394 C 290.510 95.068,290.279 95.619,290.191 95.619 C 290.103 95.619,289.888 96.256,289.713 97.036 C 289.539 97.816,289.301 98.454,289.185 98.454 C 289.070 98.454,288.895 98.889,288.798 99.420 C 288.701 99.952,288.477 100.619,288.299 100.902 C 288.122 101.186,287.825 101.968,287.640 102.642 C 287.455 103.315,287.222 103.866,287.121 103.866 C 287.020 103.866,286.795 104.504,286.620 105.284 C 286.446 106.063,286.211 106.701,286.099 106.701 C 285.987 106.701,285.748 107.397,285.567 108.247 C 285.387 109.098,285.143 109.794,285.026 109.794 C 284.909 109.794,284.690 110.287,284.539 110.889 C 284.387 111.492,284.103 112.274,283.908 112.629 C 283.712 112.983,283.471 113.708,283.371 114.240 C 283.272 114.771,283.099 115.206,282.987 115.206 C 282.875 115.206,282.638 115.812,282.460 116.553 C 282.283 117.294,281.992 118.045,281.814 118.223 C 281.636 118.401,281.412 119.013,281.315 119.583 C 281.219 120.152,281.053 120.619,280.946 120.619 C 280.840 120.619,280.599 121.256,280.412 122.036 C 280.225 122.816,280.000 123.454,279.912 123.454 C 279.824 123.454,279.590 124.002,279.392 124.672 C 279.194 125.343,278.879 126.183,278.693 126.541 C 278.506 126.898,278.282 127.568,278.194 128.028 C 278.107 128.489,277.954 128.866,277.855 128.866 C 277.756 128.866,277.522 129.461,277.336 130.187 C 277.150 130.914,276.839 131.813,276.645 132.185 C 276.451 132.557,276.291 133.038,276.290 133.255 C 276.289 133.471,276.130 133.877,275.936 134.157 C 275.603 134.637,274.696 137.434,274.758 137.791 C 274.773 137.883,274.689 138.029,274.571 138.116 C 274.358 138.272,273.815 139.651,272.990 142.139 C 272.754 142.848,272.487 143.486,272.396 143.557 C 272.304 143.628,272.146 144.091,272.043 144.588 C 271.941 145.084,271.702 145.734,271.514 146.032 C 271.326 146.330,271.092 146.998,270.995 147.517 C 270.897 148.035,270.713 148.524,270.585 148.603 C 270.457 148.682,270.419 148.855,270.501 148.987 C 270.582 149.119,270.541 149.227,270.408 149.227 C 270.276 149.227,270.098 149.575,270.013 150.000 C 269.928 150.425,269.637 151.266,269.366 151.869 C 269.095 152.471,268.792 153.341,268.694 153.802 C 268.596 154.262,268.425 154.639,268.314 154.639 C 268.203 154.639,267.964 155.335,267.784 156.186 C 267.603 157.036,267.366 157.732,267.257 157.732 C 267.147 157.732,266.909 158.312,266.728 159.021 C 266.546 159.729,266.312 160.309,266.207 160.309 C 266.102 160.309,265.874 160.947,265.699 161.727 C 265.525 162.506,265.299 163.144,265.199 163.144 C 265.098 163.144,264.862 163.695,264.674 164.369 C 264.486 165.042,264.182 165.883,263.998 166.237 C 263.813 166.591,263.591 167.258,263.504 167.719 C 263.416 168.180,263.260 168.557,263.157 168.557 C 263.053 168.557,262.816 169.195,262.629 169.974 C 262.442 170.754,262.193 171.392,262.076 171.392 C 261.959 171.392,261.732 171.914,261.571 172.552 C 261.410 173.189,261.191 173.711,261.082 173.711 C 260.974 173.711,260.755 174.233,260.594 174.871 C 260.433 175.509,260.188 176.031,260.048 176.031 C 259.908 176.031,259.794 176.178,259.794 176.358 C 259.794 176.538,259.351 177.553,258.810 178.613 C 256.245 183.642,254.805 185.407,252.577 186.248 C 251.939 186.489,251.302 186.770,251.160 186.871 C 251.018 186.973,250.206 187.197,249.356 187.369 C 246.713 187.904,246.649 187.965,246.649 189.992 L 246.649 191.753 263.015 191.753 L 279.381 191.753 279.381 189.948 L 279.381 188.144 278.522 188.144 C 278.050 188.144,277.583 188.064,277.485 187.966 C 277.388 187.869,276.933 187.779,276.476 187.767 C 276.019 187.755,275.528 187.674,275.387 187.588 C 275.245 187.501,274.520 187.348,273.776 187.248 C 273.032 187.147,272.423 186.941,272.423 186.789 C 272.423 186.636,272.350 186.585,272.261 186.674 C 271.885 187.050,269.257 185.243,268.641 184.184 C 267.820 182.773,267.733 182.288,267.862 179.823 C 267.934 178.436,268.105 177.160,268.241 176.988 C 268.378 176.816,268.636 176.037,268.814 175.258 C 268.993 174.478,269.232 173.722,269.346 173.578 C 269.459 173.433,269.748 172.534,269.988 171.580 C 270.227 170.626,270.512 169.845,270.621 169.845 C 270.730 169.845,270.898 169.424,270.995 168.908 C 271.091 168.393,271.394 167.554,271.668 167.044 C 271.941 166.533,272.165 165.963,272.165 165.776 C 272.165 165.589,272.384 164.949,272.651 164.354 C 272.919 163.760,273.218 162.896,273.316 162.436 C 273.414 161.975,273.587 161.598,273.700 161.598 C 273.812 161.598,273.974 161.250,274.059 160.825 C 274.144 160.399,274.438 159.559,274.712 158.956 C 274.987 158.354,275.292 157.426,275.392 156.894 C 275.491 156.363,275.664 155.928,275.776 155.928 C 275.888 155.928,276.124 155.319,276.300 154.575 C 276.743 152.709,275.172 152.843,296.562 152.839 L 315.934 152.835 316.108 153.866 C 316.204 154.433,316.366 154.897,316.469 154.897 C 316.571 154.897,316.804 155.477,316.985 156.186 C 317.167 156.894,317.402 157.474,317.509 157.474 C 317.615 157.474,317.844 158.112,318.019 158.892 C 318.193 159.671,318.428 160.309,318.540 160.309 C 318.652 160.309,318.892 161.005,319.072 161.856 C 319.253 162.706,319.487 163.402,319.592 163.402 C 319.698 163.402,319.918 163.935,320.082 164.586 C 320.246 165.237,320.541 166.020,320.738 166.325 C 320.935 166.631,321.175 167.316,321.273 167.848 C 321.370 168.380,321.534 168.814,321.637 168.814 C 321.741 168.814,321.968 169.452,322.142 170.232 C 322.317 171.012,322.554 171.649,322.670 171.649 C 322.785 171.649,323.022 172.403,323.196 173.325 C 323.370 174.246,323.603 175.000,323.714 175.000 C 323.825 175.000,324.062 175.986,324.242 177.191 C 324.421 178.396,324.665 179.381,324.784 179.381 C 325.079 179.381,325.058 181.858,324.758 182.413 C 324.625 182.659,324.454 183.151,324.379 183.505 C 324.207 184.319,322.297 186.297,321.488 186.500 C 321.151 186.585,320.876 186.747,320.876 186.861 C 320.876 186.975,320.413 187.146,319.847 187.242 C 319.280 187.338,318.763 187.504,318.697 187.611 C 318.631 187.718,318.109 187.775,317.537 187.739 C 316.966 187.702,316.433 187.779,316.352 187.909 C 316.272 188.038,315.866 188.144,315.449 188.144 L 314.691 188.144 314.691 189.948 L 314.691 191.753 335.052 191.753 L 355.412 191.753 355.412 189.982 L 355.412 188.212 354.317 188.033 C 352.689 187.767,352.543 187.736,351.359 187.403 C 348.687 186.652,344.558 183.708,343.994 182.152 C 343.904 181.904,343.724 181.701,343.593 181.701 C 343.462 181.701,343.283 181.414,343.195 181.063 C 343.107 180.713,342.746 180.001,342.394 179.481 C 342.041 178.961,341.753 178.379,341.753 178.186 C 341.753 177.993,341.661 177.835,341.548 177.835 C 341.436 177.835,341.204 177.313,341.034 176.675 C 340.863 176.037,340.619 175.515,340.491 175.515 C 340.362 175.515,340.118 174.936,339.948 174.227 C 339.778 173.518,339.546 172.938,339.431 172.938 C 339.317 172.938,339.074 172.358,338.893 171.649 C 338.711 170.941,338.487 170.361,338.395 170.361 C 338.302 170.361,338.074 169.723,337.887 168.943 C 337.700 168.164,337.474 167.526,337.386 167.526 C 337.298 167.526,337.068 166.975,336.874 166.302 C 336.681 165.628,336.432 164.960,336.322 164.816 C 336.211 164.673,335.982 164.006,335.813 163.334 C 335.644 162.663,335.419 162.113,335.314 162.113 C 335.208 162.113,334.974 161.418,334.794 160.567 C 334.613 159.716,334.379 159.021,334.274 159.021 C 334.168 159.021,333.943 158.471,333.774 157.800 C 333.605 157.128,333.378 156.461,333.268 156.318 C 333.159 156.174,332.921 155.506,332.738 154.832 C 332.556 154.159,332.322 153.608,332.218 153.608 C 332.114 153.608,331.882 152.912,331.701 152.062 C 331.521 151.211,331.281 150.515,331.169 150.515 C 331.057 150.515,330.822 149.878,330.648 149.098 C 330.473 148.318,330.255 147.680,330.162 147.680 C 330.070 147.680,329.842 147.072,329.656 146.327 C 329.469 145.583,329.097 144.481,328.827 143.879 C 328.558 143.276,328.268 142.436,328.183 142.010 C 328.098 141.585,327.945 141.237,327.844 141.237 C 327.742 141.237,327.517 140.599,327.342 139.820 C 327.168 139.040,326.930 138.402,326.814 138.402 C 326.699 138.402,326.525 137.967,326.430 137.436 C 326.334 136.904,326.038 136.044,325.773 135.525 C 325.507 135.006,325.212 134.165,325.116 133.657 C 325.021 133.148,324.858 132.732,324.755 132.732 C 324.651 132.732,324.414 132.094,324.227 131.314 C 324.040 130.535,323.808 129.897,323.711 129.897 C 323.615 129.897,323.393 129.259,323.218 128.479 C 323.044 127.700,322.806 127.062,322.691 127.062 C 322.575 127.062,322.402 126.627,322.306 126.095 C 322.210 125.564,321.907 124.690,321.633 124.154 C 321.359 123.618,321.134 123.056,321.134 122.905 C 321.134 122.753,320.970 122.264,320.770 121.817 C 320.569 121.371,320.264 120.541,320.092 119.974 C 319.919 119.407,319.695 118.827,319.594 118.686 C 319.493 118.544,319.261 117.877,319.079 117.204 C 318.896 116.530,318.659 115.979,318.552 115.979 C 318.444 115.979,318.275 115.544,318.175 115.013 C 318.076 114.481,317.784 113.582,317.526 113.015 C 317.268 112.448,316.976 111.550,316.876 111.018 C 316.777 110.486,316.611 110.052,316.507 110.052 C 316.404 110.052,316.166 109.414,315.979 108.634 C 315.792 107.854,315.564 107.216,315.471 107.216 C 315.379 107.216,315.155 106.637,314.973 105.928 C 314.792 105.219,314.551 104.639,314.438 104.639 C 314.325 104.639,314.151 104.204,314.052 103.673 C 313.952 103.141,313.649 102.220,313.379 101.625 C 313.108 101.030,312.886 100.392,312.885 100.207 C 312.884 100.022,312.731 99.579,312.544 99.221 C 312.358 98.864,312.043 98.023,311.845 97.353 C 311.647 96.682,311.413 96.134,311.325 96.134 C 311.237 96.134,311.022 95.496,310.847 94.716 C 310.673 93.937,310.441 93.299,310.332 93.299 C 310.223 93.299,309.986 92.632,309.806 91.817 C 309.626 91.002,309.330 90.045,309.148 89.691 C 308.719 88.853,307.475 85.499,307.473 85.174 C 307.472 85.036,307.312 84.618,307.118 84.246 C 306.924 83.874,306.613 82.976,306.427 82.249 C 306.240 81.522,306.016 80.928,305.928 80.928 C 305.840 80.928,305.619 80.348,305.437 79.639 C 305.256 78.930,305.018 78.351,304.908 78.351 C 304.799 78.351,304.562 77.655,304.381 76.804 C 304.201 75.954,303.961 75.258,303.849 75.258 C 303.737 75.258,303.502 74.620,303.328 73.840 C 303.154 73.061,302.913 72.423,302.794 72.423 C 302.675 72.423,302.577 72.191,302.577 71.907 C 302.577 71.387,299.614 71.091,299.141 71.564 M200.695 78.890 C 202.509 79.045,204.053 79.263,204.124 79.374 C 204.194 79.484,205.093 79.716,206.121 79.888 C 207.149 80.060,207.990 80.294,207.990 80.407 C 207.990 80.520,208.425 80.692,208.956 80.789 C 209.488 80.886,210.163 81.121,210.457 81.309 C 210.751 81.498,211.475 81.798,212.068 81.975 C 212.660 82.153,213.144 82.384,213.144 82.490 C 213.144 82.595,213.492 82.803,213.918 82.951 C 214.343 83.099,214.691 83.319,214.691 83.440 C 214.691 83.561,215.097 83.806,215.593 83.986 C 216.089 84.165,216.495 84.412,216.495 84.535 C 216.495 84.658,216.713 84.828,216.980 84.913 C 217.246 84.998,217.739 85.309,218.075 85.604 C 218.411 85.899,219.091 86.447,219.586 86.820 C 221.312 88.124,226.271 93.349,226.284 93.879 C 226.287 93.985,226.492 94.296,226.740 94.569 C 227.429 95.329,227.672 95.680,228.093 96.521 C 228.305 96.946,228.624 97.447,228.802 97.634 C 228.979 97.822,229.124 98.074,229.124 98.196 C 229.124 98.317,229.269 98.570,229.446 98.757 C 229.781 99.112,230.777 101.322,231.254 102.771 C 231.406 103.231,231.626 103.608,231.744 103.608 C 231.862 103.608,231.959 103.769,231.959 103.965 C 231.959 104.448,232.794 107.055,233.000 107.216 C 233.091 107.287,233.308 108.086,233.484 108.992 C 233.659 109.897,233.905 110.825,234.030 111.053 C 234.261 111.476,234.787 113.611,234.897 114.575 C 234.930 114.866,235.025 115.213,235.106 115.348 C 235.188 115.483,235.404 116.927,235.586 118.557 C 235.768 120.187,236.004 121.581,236.112 121.655 C 236.819 122.139,236.811 142.911,236.103 144.459 C 235.973 144.742,235.729 146.070,235.559 147.409 C 235.389 148.748,235.155 150.024,235.039 150.244 C 234.923 150.464,234.628 151.659,234.384 152.899 C 234.140 154.140,233.855 155.155,233.751 155.155 C 233.647 155.155,233.487 155.556,233.395 156.046 C 233.303 156.536,233.059 157.261,232.853 157.657 C 232.646 158.052,232.405 158.753,232.318 159.214 C 232.231 159.675,232.056 160.052,231.930 160.052 C 231.804 160.052,231.719 160.139,231.742 160.245 C 231.764 160.351,231.710 160.612,231.621 160.825 C 231.284 161.628,230.989 162.508,230.982 162.735 C 230.978 162.864,230.799 163.067,230.584 163.187 C 230.370 163.307,230.119 163.752,230.025 164.177 C 229.932 164.601,229.761 164.948,229.644 164.948 C 229.527 164.948,229.311 165.296,229.162 165.722 C 229.014 166.147,228.792 166.495,228.670 166.495 C 228.547 166.495,228.289 166.896,228.097 167.386 C 227.905 167.876,227.593 168.337,227.405 168.409 C 227.216 168.481,227.062 168.714,227.062 168.926 C 227.062 169.138,226.830 169.436,226.546 169.588 C 226.263 169.739,226.029 170.004,226.026 170.177 C 226.024 170.349,225.734 170.763,225.382 171.097 C 225.030 171.430,224.742 171.796,224.742 171.908 C 224.742 172.205,220.390 176.513,219.745 176.855 C 219.446 177.014,219.049 177.357,218.864 177.618 C 218.679 177.879,218.418 178.093,218.284 178.093 C 218.151 178.093,217.823 178.296,217.556 178.544 C 216.650 179.387,215.852 179.918,215.271 180.064 C 214.952 180.145,214.691 180.320,214.691 180.454 C 214.691 180.587,214.343 180.818,213.918 180.966 C 213.492 181.115,213.144 181.326,213.144 181.435 C 213.144 181.544,212.593 181.787,211.920 181.975 C 211.247 182.162,210.553 182.457,210.379 182.629 C 210.204 182.802,209.596 183.021,209.026 183.118 C 208.456 183.214,207.990 183.411,207.990 183.555 C 207.990 183.700,207.819 183.753,207.611 183.673 C 207.403 183.593,207.173 183.625,207.099 183.744 C 207.026 183.863,206.326 184.040,205.545 184.138 C 204.763 184.236,204.124 184.410,204.124 184.524 C 204.124 184.639,203.747 184.709,203.286 184.678 C 202.825 184.648,202.297 184.739,202.113 184.880 C 201.692 185.202,191.985 185.227,191.475 184.908 C 191.273 184.781,190.702 184.664,190.206 184.647 C 189.710 184.630,189.130 184.546,188.918 184.461 C 188.437 184.267,185.359 183.745,184.677 183.741 C 184.400 183.740,184.052 183.639,183.904 183.517 C 183.755 183.395,183.083 183.214,182.410 183.113 L 181.186 182.931 181.186 131.959 L 181.186 80.986 182.345 80.812 C 182.983 80.717,183.505 80.552,183.505 80.447 C 183.505 80.341,184.578 80.098,185.889 79.906 C 187.200 79.714,188.335 79.465,188.410 79.352 C 188.788 78.786,196.204 78.507,200.695 78.890 M297.165 101.289 C 297.335 101.997,297.568 102.577,297.683 102.577 C 297.799 102.577,297.972 103.044,298.068 103.613 C 298.164 104.183,298.393 104.800,298.577 104.983 C 298.761 105.167,299.058 105.977,299.239 106.782 C 299.419 107.588,299.656 108.247,299.765 108.247 C 299.874 108.247,300.106 108.885,300.280 109.665 C 300.455 110.445,300.681 111.082,300.782 111.082 C 300.883 111.082,301.036 111.430,301.121 111.856 C 301.206 112.281,301.497 113.122,301.768 113.724 C 302.039 114.327,302.342 115.197,302.440 115.657 C 302.538 116.118,302.712 116.495,302.827 116.495 C 302.942 116.495,303.117 116.930,303.216 117.461 C 303.316 117.993,303.619 118.914,303.889 119.509 C 304.160 120.104,304.381 120.719,304.381 120.876 C 304.381 121.034,304.616 121.678,304.903 122.308 C 305.190 122.938,305.495 123.802,305.580 124.227 C 305.665 124.652,305.818 125.000,305.919 125.000 C 306.021 125.000,306.246 125.638,306.421 126.418 C 306.595 127.197,306.833 127.835,306.949 127.835 C 307.064 127.835,307.241 128.270,307.340 128.802 C 307.440 129.333,307.734 130.236,307.994 130.808 C 308.255 131.380,308.552 132.184,308.655 132.595 C 308.758 133.006,308.998 133.640,309.188 134.003 C 309.378 134.367,309.605 135.042,309.692 135.503 C 309.780 135.963,309.941 136.340,310.052 136.340 C 310.162 136.340,310.330 136.759,310.426 137.270 C 310.522 137.781,310.728 138.506,310.884 138.881 C 311.040 139.255,311.188 139.620,311.211 139.691 C 311.235 139.762,311.398 140.168,311.574 140.593 C 311.749 141.018,311.957 141.685,312.036 142.075 C 312.114 142.465,312.269 142.784,312.381 142.784 C 312.492 142.784,312.662 143.247,312.758 143.813 C 312.853 144.379,313.039 144.909,313.171 144.991 C 314.047 145.532,311.736 145.619,296.377 145.619 C 281.671 145.619,279.639 145.572,279.639 145.232 C 279.639 145.019,279.741 144.845,279.865 144.845 C 279.989 144.845,280.160 144.497,280.245 144.072 C 280.330 143.647,280.626 142.802,280.903 142.195 C 281.179 141.587,281.488 140.746,281.589 140.326 C 281.690 139.906,281.858 139.446,281.963 139.304 C 282.068 139.162,282.239 138.756,282.345 138.402 C 282.450 138.048,282.757 137.265,283.027 136.662 C 283.297 136.060,283.588 135.219,283.673 134.794 C 283.758 134.369,283.916 134.021,284.024 134.021 C 284.132 134.021,284.302 133.586,284.402 133.054 C 284.501 132.523,284.804 131.601,285.075 131.006 C 285.346 130.412,285.567 129.771,285.567 129.582 C 285.567 129.393,285.724 129.010,285.915 128.730 C 286.107 128.450,286.347 127.878,286.449 127.457 C 286.552 127.037,286.846 126.225,287.103 125.653 C 287.360 125.081,287.651 124.236,287.749 123.776 C 287.847 123.315,288.021 122.938,288.136 122.938 C 288.251 122.938,288.425 122.509,288.524 121.984 C 288.622 121.459,288.910 120.618,289.162 120.115 C 289.415 119.612,289.775 118.592,289.963 117.848 C 290.150 117.104,290.383 116.495,290.480 116.495 C 290.578 116.495,290.727 116.147,290.812 115.722 C 290.897 115.296,291.204 114.427,291.495 113.789 C 291.785 113.151,292.093 112.281,292.178 111.856 C 292.263 111.430,292.415 111.082,292.517 111.082 C 292.618 111.082,292.854 110.445,293.041 109.665 C 293.228 108.885,293.458 108.247,293.551 108.247 C 293.645 108.247,293.879 107.668,294.072 106.959 C 294.265 106.250,294.500 105.670,294.593 105.670 C 294.687 105.670,294.916 105.032,295.103 104.253 C 295.290 103.473,295.522 102.835,295.619 102.835 C 295.715 102.835,295.947 102.197,296.134 101.418 C 296.555 99.665,296.769 99.638,297.165 101.289 M97.072 101.991 C 97.405 102.810,97.679 103.578,97.679 103.698 C 97.680 103.818,97.844 104.282,98.045 104.729 C 98.245 105.176,98.550 106.005,98.723 106.572 C 98.895 107.139,99.124 107.719,99.231 107.861 C 99.338 108.003,99.508 108.524,99.609 109.021 C 99.710 109.517,99.951 110.173,100.144 110.479 C 100.338 110.784,100.630 111.567,100.794 112.218 C 100.958 112.869,101.181 113.402,101.291 113.402 C 101.400 113.402,101.570 113.837,101.670 114.369 C 101.769 114.900,102.072 115.822,102.343 116.416 C 102.614 117.011,102.836 117.649,102.837 117.834 C 102.838 118.019,102.991 118.463,103.177 118.820 C 103.364 119.177,103.679 120.018,103.876 120.689 C 104.074 121.359,104.308 121.907,104.397 121.907 C 104.485 121.907,104.700 122.545,104.874 123.325 C 105.049 124.104,105.286 124.742,105.402 124.742 C 105.518 124.742,105.694 125.177,105.794 125.709 C 105.893 126.240,106.196 127.162,106.467 127.756 C 106.737 128.351,106.959 128.966,106.959 129.124 C 106.959 129.281,107.194 129.925,107.481 130.555 C 107.768 131.185,108.072 132.049,108.157 132.474 C 108.242 132.899,108.395 133.247,108.496 133.247 C 108.598 133.247,108.824 133.885,108.998 134.665 C 109.173 135.445,109.413 136.082,109.532 136.082 C 109.651 136.082,109.826 136.540,109.920 137.098 C 110.015 137.657,110.308 138.538,110.572 139.057 C 110.836 139.575,111.131 140.364,111.227 140.811 C 111.322 141.258,111.472 141.740,111.560 141.881 C 111.647 142.023,111.731 142.197,111.745 142.268 C 111.760 142.339,111.847 142.571,111.940 142.784 C 112.033 142.996,112.273 143.721,112.473 144.394 L 112.836 145.619 95.995 145.619 L 79.154 145.619 79.524 144.910 C 79.727 144.520,79.894 144.050,79.895 143.865 C 79.896 143.680,80.116 143.042,80.383 142.447 C 80.651 141.853,80.950 140.989,81.048 140.528 C 81.146 140.068,81.311 139.691,81.415 139.691 C 81.519 139.691,81.759 139.082,81.949 138.338 C 82.138 137.593,82.442 136.753,82.623 136.469 C 82.804 136.186,83.031 135.519,83.128 134.987 C 83.225 134.456,83.400 134.021,83.515 134.021 C 83.631 134.021,83.869 133.383,84.043 132.603 C 84.218 131.823,84.453 131.186,84.567 131.186 C 84.681 131.186,84.898 130.693,85.049 130.090 C 85.200 129.488,85.481 128.705,85.674 128.351 C 85.866 127.996,86.110 127.302,86.215 126.808 C 86.321 126.314,86.558 125.676,86.742 125.390 C 86.925 125.105,87.155 124.436,87.252 123.905 C 87.349 123.373,87.516 122.938,87.624 122.938 C 87.732 122.938,87.973 122.387,88.161 121.714 C 88.349 121.041,88.653 120.200,88.838 119.845 C 89.022 119.491,89.244 118.824,89.331 118.363 C 89.419 117.903,89.578 117.526,89.685 117.526 C 89.793 117.526,90.075 116.834,90.312 115.988 C 90.550 115.142,90.912 114.127,91.118 113.732 C 91.323 113.338,91.492 112.864,91.493 112.679 C 91.494 112.494,91.714 111.856,91.981 111.262 C 92.249 110.667,92.548 109.803,92.646 109.343 C 92.744 108.882,92.909 108.505,93.013 108.505 C 93.117 108.505,93.350 107.925,93.532 107.216 C 93.713 106.508,93.954 105.928,94.067 105.928 C 94.180 105.928,94.354 105.493,94.453 104.961 C 94.553 104.430,94.856 103.508,95.126 102.914 C 95.397 102.319,95.619 101.702,95.619 101.544 C 95.619 99.923,96.317 100.138,97.072 101.991 " stroke="none" fill="#ac445c" fill-rule="evenodd"></path><path id="path1" d="M205.563 0.780 C 204.958 1.396,204.592 1.546,203.694 1.546 L 202.577 1.546 202.577 2.706 C 202.577 3.418,202.461 3.866,202.277 3.866 C 202.111 3.866,202.048 3.938,202.135 4.026 C 202.335 4.225,201.685 4.897,201.292 4.897 C 201.132 4.897,201.072 5.013,201.160 5.155 C 201.247 5.296,201.196 5.412,201.046 5.412 C 200.468 5.412,200.814 6.381,201.694 7.230 C 202.509 8.017,202.605 8.244,202.530 9.210 C 202.436 10.427,202.594 10.567,204.068 10.567 C 204.764 10.567,205.212 10.772,205.833 11.373 C 206.610 12.127,208.314 12.332,207.874 11.619 C 207.624 11.216,208.934 10.599,210.212 10.518 L 211.469 10.438 211.538 9.407 C 211.635 7.945,211.837 7.174,212.082 7.326 C 212.198 7.398,212.447 7.171,212.634 6.821 C 212.821 6.472,213.069 6.186,213.185 6.186 C 213.403 6.186,212.838 5.421,212.066 4.668 C 211.803 4.413,211.599 3.737,211.550 2.960 L 211.469 1.675 210.181 1.594 C 209.156 1.530,208.741 1.358,208.153 0.756 C 207.220 -0.198,206.516 -0.191,205.563 0.780 M169.459 0.805 C 168.843 1.000,165.396 1.607,163.144 1.916 C 162.932 1.946,162.584 2.038,162.371 2.123 C 162.159 2.207,161.411 2.345,160.710 2.429 C 159.126 2.618,158.981 2.842,159.192 4.768 C 159.285 5.619,159.362 6.449,159.363 6.612 C 159.365 7.190,160.437 6.527,160.513 5.900 C 160.699 4.373,161.748 3.614,163.677 3.610 C 164.298 3.608,164.357 3.722,164.645 5.477 C 164.814 6.505,165.126 8.389,165.339 9.665 C 165.551 10.941,165.726 12.240,165.727 12.552 C 165.729 12.864,165.844 13.189,165.983 13.276 C 166.497 13.593,166.283 16.085,165.711 16.442 C 165.422 16.622,165.086 16.709,164.965 16.634 C 164.715 16.479,164.344 17.265,164.564 17.485 C 164.795 17.716,169.902 17.071,170.754 16.703 C 171.839 16.234,171.657 15.557,170.433 15.511 C 169.072 15.460,169.153 15.674,168.155 9.536 C 168.097 9.182,167.867 7.906,167.644 6.701 C 166.931 2.854,166.925 2.917,168.005 2.738 C 169.886 2.427,171.374 2.879,171.441 3.782 C 171.518 4.814,172.680 5.027,172.680 4.010 C 172.680 3.664,172.564 3.309,172.423 3.222 C 172.281 3.134,172.163 2.750,172.161 2.369 C 172.152 0.512,171.526 0.150,169.459 0.805 M207.801 3.093 C 208.068 3.405,208.561 3.608,209.050 3.608 C 209.819 3.608,209.850 3.647,209.696 4.421 C 209.567 5.064,209.644 5.311,210.067 5.606 C 210.578 5.965,210.582 6.000,210.143 6.485 C 209.882 6.773,209.711 7.313,209.744 7.747 C 209.797 8.440,209.731 8.505,208.977 8.505 C 208.484 8.505,207.911 8.731,207.555 9.066 L 206.959 9.626 206.362 9.066 C 206.034 8.757,205.454 8.505,205.074 8.505 C 204.464 8.505,204.381 8.405,204.381 7.665 C 204.381 7.090,204.210 6.718,203.839 6.486 L 203.296 6.147 203.839 5.570 C 204.137 5.252,204.381 4.681,204.381 4.300 C 204.381 3.756,204.505 3.607,204.961 3.603 C 205.280 3.599,205.831 3.370,206.186 3.093 C 207.002 2.454,207.254 2.454,207.801 3.093 M240.960 2.624 C 240.753 3.480,240.827 3.621,241.582 3.815 C 242.442 4.037,242.913 5.781,242.314 6.527 C 242.180 6.693,241.922 7.671,241.741 8.698 C 241.560 9.726,241.296 10.567,241.153 10.567 C 241.010 10.567,240.963 10.637,241.049 10.722 C 241.134 10.808,241.096 11.162,240.964 11.509 C 240.159 13.627,240.368 17.036,241.368 18.106 C 241.733 18.495,241.939 18.817,241.827 18.821 C 241.715 18.825,242.366 19.187,243.272 19.627 C 246.340 21.114,249.269 20.984,250.985 19.284 C 252.233 18.049,252.932 16.090,254.279 10.052 C 254.692 8.200,255.391 7.361,256.366 7.547 C 257.088 7.685,257.633 7.148,257.155 6.770 C 256.862 6.538,256.446 6.414,254.768 6.056 C 254.485 5.995,253.789 5.829,253.222 5.685 C 251.782 5.321,251.289 5.350,251.289 5.799 C 251.289 6.012,251.434 6.189,251.611 6.194 C 252.584 6.220,253.525 7.987,252.899 8.612 C 252.793 8.719,252.685 9.057,252.660 9.364 C 252.635 9.671,252.423 10.619,252.191 11.469 C 251.958 12.320,251.736 13.247,251.696 13.531 C 251.359 15.963,250.238 18.135,248.970 18.814 C 247.492 19.605,243.220 18.215,243.492 17.032 C 243.528 16.878,243.441 16.753,243.299 16.753 C 242.783 16.753,243.357 12.914,244.262 10.309 C 244.336 10.097,244.431 9.691,244.473 9.407 C 244.861 6.792,246.066 4.468,246.703 5.105 C 247.005 5.408,247.938 5.071,247.938 4.660 C 247.938 4.392,245.906 3.724,244.330 3.475 C 243.692 3.374,243.054 3.221,242.912 3.135 C 242.771 3.049,242.524 2.959,242.364 2.934 C 242.205 2.910,241.828 2.812,241.527 2.716 C 241.226 2.621,240.971 2.579,240.960 2.624 M143.041 6.748 C 142.545 6.874,141.907 7.084,141.624 7.215 C 141.340 7.346,140.586 7.580,139.948 7.736 C 139.311 7.892,138.421 8.188,137.972 8.394 C 137.522 8.599,136.773 8.844,136.308 8.937 C 135.842 9.030,135.166 9.260,134.805 9.448 C 134.445 9.637,133.956 9.791,133.720 9.792 C 132.937 9.795,132.474 10.100,132.474 10.612 C 132.474 11.047,132.626 11.106,133.570 11.035 C 134.750 10.947,135.686 12.199,136.007 14.296 C 136.073 14.726,136.283 15.425,136.473 15.851 C 136.663 16.276,137.064 17.494,137.364 18.557 C 137.663 19.620,138.070 21.051,138.267 21.737 C 138.655 23.088,138.562 23.711,137.973 23.711 C 137.767 23.711,137.670 23.827,137.758 23.969 C 137.845 24.111,137.728 24.227,137.496 24.227 C 136.837 24.227,137.154 25.124,137.826 25.158 C 138.143 25.174,138.402 25.087,138.402 24.965 C 138.402 24.842,138.591 24.742,138.822 24.742 C 139.263 24.742,142.877 23.614,144.201 23.063 C 144.626 22.886,145.583 22.600,146.328 22.427 C 147.073 22.255,147.746 22.009,147.825 21.881 C 147.904 21.754,148.194 21.649,148.469 21.649 C 148.927 21.649,148.969 21.454,148.969 19.330 C 148.969 16.421,148.264 15.919,147.703 18.429 C 147.294 20.255,145.613 21.515,143.256 21.760 C 143.162 21.770,142.997 21.865,142.891 21.972 C 142.464 22.398,141.528 22.161,141.367 21.585 C 141.278 21.266,141.101 20.773,140.974 20.490 C 140.785 20.068,140.175 18.020,140.091 17.526 C 140.079 17.455,139.969 17.239,139.847 17.046 C 139.588 16.636,140.071 16.248,140.851 16.239 C 141.134 16.236,141.698 16.061,142.104 15.849 C 143.445 15.149,144.845 15.536,144.845 16.605 C 144.845 16.987,145.625 17.176,145.932 16.869 C 146.125 16.676,145.686 14.746,145.223 13.750 C 145.015 13.303,144.845 12.802,144.845 12.637 C 144.845 12.472,144.728 12.117,144.584 11.848 C 144.196 11.124,143.557 11.505,143.553 12.463 C 143.547 13.624,141.899 14.771,140.657 14.479 C 140.551 14.453,140.464 14.535,140.464 14.661 C 140.464 14.786,140.174 14.944,139.820 15.012 C 139.325 15.106,139.175 15.027,139.175 14.670 C 139.175 14.415,139.069 14.140,138.940 14.060 C 138.811 13.980,138.626 13.452,138.531 12.885 C 138.435 12.319,138.237 11.856,138.092 11.856 C 137.946 11.856,137.886 11.629,137.958 11.353 C 138.030 11.076,137.965 10.808,137.813 10.757 C 137.274 10.577,137.855 9.864,138.702 9.666 C 139.175 9.555,139.620 9.444,139.691 9.419 C 142.233 8.530,143.291 8.559,143.943 9.536 C 144.261 10.011,144.682 10.308,145.039 10.309 C 145.643 10.309,145.774 10.070,145.399 9.652 C 145.278 9.517,145.032 8.859,144.851 8.188 C 144.442 6.667,144.180 6.459,143.041 6.748 M270.619 11.838 C 270.619 12.112,270.852 12.411,271.138 12.501 C 271.980 12.769,272.747 14.505,272.290 15.109 C 272.089 15.375,271.920 15.854,271.915 16.173 C 271.911 16.492,271.791 16.753,271.649 16.753 C 271.508 16.753,271.410 16.840,271.432 16.946 C 271.468 17.123,271.177 17.866,270.245 19.974 C 270.057 20.399,269.824 21.008,269.728 21.327 C 269.632 21.646,269.454 21.907,269.333 21.907 C 269.212 21.907,269.035 22.284,268.938 22.745 C 268.842 23.206,268.575 23.872,268.345 24.227 C 268.114 24.581,267.922 24.987,267.917 25.129 C 267.912 25.271,267.387 25.387,266.750 25.387 C 265.746 25.387,265.582 25.463,265.510 25.966 C 265.448 26.405,265.556 26.546,265.954 26.546 C 266.243 26.546,266.879 26.771,267.368 27.046 C 268.578 27.725,270.832 28.372,271.007 28.090 C 271.085 27.964,270.737 27.486,270.234 27.028 C 269.612 26.462,269.403 26.112,269.582 25.933 C 269.727 25.788,269.845 25.502,269.845 25.295 C 269.845 25.089,270.127 24.326,270.471 23.599 C 270.815 22.872,271.175 21.962,271.272 21.577 C 271.369 21.191,271.533 20.876,271.637 20.876 C 271.741 20.876,271.973 20.383,272.152 19.781 C 272.719 17.881,273.210 17.099,273.505 17.626 C 273.642 17.872,273.692 18.236,273.615 18.435 C 273.539 18.635,273.567 18.854,273.679 18.923 C 273.791 18.992,274.030 19.721,274.212 20.542 C 274.393 21.364,274.630 22.152,274.737 22.294 C 274.845 22.436,275.016 23.015,275.119 23.581 C 275.221 24.146,275.378 24.726,275.467 24.869 C 275.557 25.012,275.658 25.245,275.692 25.387 C 275.725 25.528,275.876 26.166,276.026 26.804 C 276.175 27.442,276.407 28.196,276.540 28.479 C 276.674 28.763,276.915 29.517,277.076 30.155 C 277.367 31.304,277.731 31.959,278.078 31.959 C 278.251 31.959,279.381 29.656,279.381 29.306 C 279.381 29.213,279.780 28.319,280.267 27.318 C 280.754 26.318,281.165 25.447,281.180 25.383 C 281.195 25.319,281.377 24.863,281.583 24.369 C 281.790 23.874,281.959 23.292,281.959 23.075 C 281.959 22.858,282.075 22.680,282.216 22.680 C 282.358 22.680,282.474 22.534,282.474 22.354 C 282.474 22.175,282.688 21.624,282.950 21.130 C 283.212 20.636,283.505 19.908,283.602 19.513 C 283.699 19.117,283.891 18.863,284.028 18.948 C 284.166 19.033,284.278 18.971,284.278 18.810 C 284.278 18.626,284.678 18.546,285.354 18.595 C 287.594 18.757,286.888 17.934,283.763 16.739 C 282.558 16.278,281.498 15.788,281.407 15.649 C 281.316 15.510,281.157 15.663,281.053 15.990 C 280.915 16.426,280.993 16.673,281.347 16.917 C 281.613 17.101,281.960 17.362,282.120 17.497 C 282.451 17.779,282.282 19.072,281.914 19.072 C 281.780 19.072,281.742 19.188,281.830 19.330 C 281.918 19.472,281.886 19.588,281.759 19.588 C 281.633 19.588,281.529 19.738,281.529 19.922 C 281.529 20.105,281.220 20.931,280.842 21.757 C 280.464 22.583,280.155 23.425,280.155 23.629 C 280.155 23.843,280.029 23.922,279.857 23.816 C 279.683 23.708,279.629 23.744,279.727 23.902 C 279.819 24.051,279.722 24.504,279.511 24.909 C 279.300 25.313,279.126 25.789,279.125 25.966 C 279.119 27.252,278.186 24.849,278.025 23.131 C 278.001 22.883,277.906 22.680,277.813 22.680 C 277.720 22.680,277.502 21.956,277.328 21.070 C 277.154 20.184,276.938 19.343,276.848 19.201 C 276.758 19.059,276.493 18.247,276.258 17.397 C 275.029 12.951,274.757 12.404,273.763 12.379 C 273.579 12.375,272.949 12.139,272.362 11.856 C 271.025 11.210,270.619 11.206,270.619 11.838 M117.961 16.092 C 116.995 16.578,115.864 17.051,115.446 17.143 C 115.028 17.235,114.744 17.404,114.816 17.519 C 114.887 17.634,114.627 17.808,114.238 17.905 C 113.849 18.002,113.357 18.230,113.144 18.411 C 112.932 18.592,112.120 18.959,111.340 19.228 C 110.561 19.496,109.760 19.870,109.561 20.060 C 109.361 20.249,108.926 20.507,108.594 20.634 C 107.997 20.861,107.807 21.381,108.183 21.757 C 108.289 21.863,108.386 22.027,108.399 22.122 C 108.645 24.027,110.240 25.499,110.120 23.711 C 110.008 22.024,111.357 20.361,112.838 20.361 C 113.162 20.361,114.051 21.905,113.731 21.911 C 113.621 21.913,113.661 22.000,113.819 22.104 C 114.158 22.327,115.206 24.438,115.206 24.898 C 115.206 25.072,115.328 25.256,115.478 25.305 C 115.627 25.355,115.779 25.568,115.815 25.778 C 115.851 25.988,116.161 26.682,116.504 27.320 C 118.417 30.881,118.701 32.208,117.653 32.686 C 117.033 32.968,116.901 33.459,117.354 33.791 C 117.678 34.029,123.494 31.194,123.651 30.722 C 123.779 30.337,122.953 30.129,122.423 30.412 C 122.160 30.553,121.765 30.599,121.546 30.515 C 121.164 30.369,116.753 21.791,116.753 21.195 C 116.753 21.036,116.506 20.488,116.205 19.978 C 115.904 19.468,115.701 19.011,115.754 18.963 C 117.052 17.796,118.846 17.623,119.857 18.568 C 120.986 19.622,122.343 19.287,121.274 18.218 C 121.055 17.999,120.876 17.723,120.876 17.604 C 120.876 17.485,120.592 16.969,120.244 16.457 C 119.896 15.945,119.683 15.454,119.771 15.366 C 120.072 15.065,119.715 15.208,117.961 16.092 M299.227 25.600 C 299.227 25.824,299.514 26.294,299.864 26.645 C 300.550 27.330,300.428 28.447,299.593 29.140 C 299.392 29.308,299.227 29.608,299.227 29.808 C 299.227 30.007,299.060 30.235,298.856 30.313 C 298.653 30.391,298.549 30.619,298.626 30.820 C 298.703 31.021,298.660 31.186,298.531 31.186 C 298.401 31.186,297.907 31.910,297.434 32.796 C 296.961 33.682,296.499 34.465,296.406 34.536 C 296.314 34.607,295.911 35.230,295.512 35.921 C 294.481 37.705,293.783 38.446,293.311 38.257 C 291.472 37.522,291.041 38.317,292.680 39.423 C 293.318 39.854,293.945 40.206,294.074 40.206 C 294.202 40.206,294.734 40.496,295.256 40.851 C 295.779 41.205,296.358 41.495,296.544 41.495 C 296.730 41.495,296.989 41.687,297.120 41.921 C 297.326 42.289,297.413 42.298,297.747 41.986 C 298.090 41.666,298.050 41.526,297.398 40.783 L 296.660 39.943 297.104 38.979 C 297.348 38.449,297.953 37.378,298.449 36.598 C 299.914 34.293,299.980 34.181,300.311 33.441 C 300.486 33.051,300.701 32.732,300.791 32.732 C 300.880 32.732,301.162 32.268,301.418 31.701 C 301.673 31.134,301.967 30.670,302.070 30.670 C 302.173 30.670,302.400 30.326,302.574 29.905 C 302.938 29.025,303.624 28.718,304.353 29.109 C 304.874 29.388,305.670 29.234,305.670 28.854 C 305.670 28.737,304.966 28.198,304.105 27.658 C 303.243 27.117,302.128 26.409,301.626 26.083 C 300.403 25.289,299.227 25.052,299.227 25.600 M90.515 26.598 C 90.018 27.095,90.138 28.442,90.711 28.800 C 91.331 29.187,92.784 28.939,92.784 28.447 C 92.784 28.252,92.900 28.093,93.043 28.093 C 93.211 28.093,93.218 27.933,93.062 27.642 C 92.930 27.394,92.758 26.988,92.682 26.740 C 92.517 26.208,91.004 26.109,90.515 26.598 M94.459 28.551 C 94.034 28.795,93.625 29.075,93.551 29.173 C 93.477 29.271,93.129 29.510,92.778 29.705 C 90.363 31.041,89.572 31.830,90.347 32.128 C 90.572 32.214,91.028 32.140,91.360 31.962 C 91.863 31.693,92.063 31.709,92.560 32.057 C 92.888 32.286,93.043 32.478,92.905 32.482 C 92.767 32.487,92.833 32.632,93.052 32.805 C 93.271 32.977,93.728 33.582,94.069 34.149 C 94.410 34.716,94.808 35.261,94.953 35.360 C 95.098 35.458,95.141 35.615,95.047 35.709 C 94.954 35.802,95.138 36.128,95.457 36.432 C 95.776 36.736,96.188 37.361,96.374 37.822 C 96.560 38.283,96.806 38.660,96.921 38.660 C 97.036 38.660,97.204 38.891,97.293 39.174 C 97.383 39.456,97.594 39.835,97.762 40.015 C 98.877 41.212,99.337 43.201,98.595 43.617 C 98.244 43.813,98.007 44.845,98.313 44.845 C 98.634 44.845,99.917 44.148,100.307 43.762 C 100.550 43.520,101.248 43.095,101.857 42.818 C 103.263 42.176,104.124 41.431,104.124 40.855 C 104.124 40.506,103.993 40.444,103.544 40.584 C 101.925 41.085,101.869 41.071,101.115 39.933 C 99.928 38.141,99.227 37.009,99.049 36.598 C 98.957 36.385,98.611 35.883,98.281 35.483 C 97.951 35.082,97.680 34.607,97.680 34.427 C 97.680 34.248,97.448 33.891,97.165 33.634 C 96.881 33.377,96.649 33.017,96.649 32.834 C 96.649 32.650,96.505 32.407,96.327 32.294 C 96.150 32.180,95.748 31.615,95.434 31.037 L 94.863 29.987 95.593 29.362 C 96.864 28.275,96.006 27.662,94.459 28.551 M317.463 37.174 C 317.404 37.349,317.570 37.854,317.832 38.297 C 318.274 39.046,318.280 39.215,317.926 40.749 C 317.394 43.053,316.649 45.723,316.495 45.876 C 316.424 45.947,316.341 46.237,316.311 46.521 C 316.172 47.817,315.553 50.004,315.376 49.826 C 315.268 49.718,315.256 49.830,315.350 50.076 C 315.444 50.321,315.406 50.666,315.264 50.841 C 315.122 51.016,314.924 51.769,314.824 52.513 C 314.724 53.257,314.550 53.809,314.436 53.739 C 314.323 53.669,314.247 53.901,314.267 54.254 C 314.288 54.615,314.462 54.897,314.665 54.897 C 315.056 54.897,317.830 53.612,318.041 53.334 C 318.112 53.240,318.924 52.777,319.845 52.304 C 320.767 51.832,321.579 51.377,321.649 51.294 C 321.720 51.210,322.590 50.742,323.582 50.252 C 324.575 49.763,325.880 49.037,326.482 48.638 C 327.084 48.239,327.579 48.006,327.581 48.119 C 327.583 48.232,327.695 48.151,327.830 47.938 C 328.003 47.664,328.454 47.567,329.384 47.606 C 330.668 47.660,331.444 47.133,330.738 46.688 C 330.212 46.356,328.760 45.220,328.138 44.652 C 327.112 43.717,325.985 43.937,326.684 44.937 C 327.173 45.634,327.168 46.392,326.675 46.392 C 326.463 46.392,326.289 46.505,326.289 46.643 C 326.289 46.966,324.859 47.711,324.646 47.498 C 324.557 47.409,324.485 47.502,324.485 47.703 C 324.485 48.030,322.960 48.920,322.709 48.739 C 322.654 48.700,322.538 48.764,322.451 48.883 C 322.283 49.112,321.532 49.572,320.156 50.288 C 319.689 50.531,319.167 50.837,318.996 50.969 C 317.883 51.828,317.711 51.214,318.571 49.456 C 318.683 49.227,318.916 48.299,319.090 47.394 C 319.263 46.488,319.562 45.434,319.754 45.051 C 319.946 44.669,320.103 44.028,320.103 43.627 C 320.103 43.226,320.284 42.640,320.504 42.325 C 320.725 42.010,320.812 41.749,320.698 41.745 C 320.583 41.740,320.697 41.616,320.951 41.469 C 321.204 41.321,321.744 41.274,322.150 41.363 C 323.207 41.595,323.454 41.025,322.588 40.356 C 322.206 40.061,321.330 39.356,320.640 38.789 C 318.119 36.717,317.688 36.498,317.463 37.174 M76.756 41.029 C 76.687 41.728,76.540 41.887,75.773 42.083 C 75.277 42.210,74.731 42.430,74.560 42.571 C 74.389 42.712,74.128 42.753,73.980 42.662 C 73.832 42.570,73.711 42.676,73.711 42.897 C 73.711 43.118,73.531 43.299,73.310 43.299 C 73.089 43.299,72.979 43.415,73.067 43.557 C 73.155 43.698,73.113 43.814,72.974 43.814 C 71.545 43.814,71.177 48.138,72.487 49.527 C 73.985 51.114,74.447 51.224,77.964 50.836 C 82.700 50.312,85.005 50.580,84.386 51.581 C 84.310 51.704,84.371 51.804,84.521 51.804 C 84.671 51.804,84.794 52.095,84.794 52.450 C 84.794 53.349,82.688 55.420,81.966 55.231 C 81.671 55.154,81.443 55.220,81.443 55.382 C 81.443 55.750,80.498 55.760,80.273 55.395 C 80.179 55.243,79.964 55.173,79.794 55.238 C 79.625 55.303,78.991 55.018,78.387 54.606 C 76.735 53.480,76.172 54.166,77.543 55.634 C 77.950 56.069,78.221 56.487,78.145 56.563 C 78.069 56.639,78.121 56.701,78.260 56.701 C 78.399 56.701,78.905 57.225,79.385 57.865 C 80.346 59.148,80.733 59.215,80.928 58.132 C 81.026 57.585,81.301 57.320,82.088 57.012 C 82.655 56.790,83.177 56.533,83.247 56.441 C 83.318 56.349,83.737 56.116,84.178 55.925 C 85.009 55.563,86.340 53.754,86.340 52.986 C 86.340 52.745,86.459 52.621,86.605 52.711 C 86.771 52.813,86.827 52.604,86.755 52.146 C 86.691 51.745,86.565 50.954,86.474 50.387 C 86.186 48.584,84.722 47.381,82.785 47.355 C 80.832 47.328,77.066 47.722,76.914 47.969 C 76.429 48.753,74.000 47.900,73.615 46.810 C 73.380 46.142,73.971 44.622,74.536 44.442 C 74.791 44.361,75.000 44.180,75.000 44.040 C 75.000 43.899,75.108 43.851,75.240 43.932 C 75.372 44.014,75.553 43.963,75.642 43.819 C 75.867 43.455,77.591 43.497,78.252 43.883 C 80.198 45.017,80.485 45.134,80.726 44.892 C 80.986 44.633,80.399 43.655,79.167 42.295 C 78.836 41.930,78.377 41.311,78.145 40.919 C 77.558 39.926,76.859 39.981,76.756 41.029 M341.358 57.487 C 341.269 57.631,341.423 58.133,341.700 58.603 C 342.393 59.777,342.291 59.943,339.175 62.718 C 338.821 63.033,338.444 63.316,338.338 63.347 C 338.231 63.377,338.115 63.479,338.080 63.574 C 338.044 63.669,337.320 64.394,336.469 65.185 C 335.619 65.976,334.830 66.769,334.717 66.946 C 334.603 67.123,334.395 67.268,334.253 67.268 C 334.112 67.268,333.741 67.535,333.428 67.861 C 332.828 68.488,332.120 68.497,331.508 67.885 C 331.041 67.418,330.691 67.430,330.503 67.918 C 330.409 68.164,330.707 68.645,331.303 69.207 C 331.826 69.700,332.187 70.103,332.106 70.103 C 332.025 70.103,332.394 70.555,332.925 71.107 C 339.049 77.469,338.632 77.186,340.520 76.268 C 342.347 75.381,342.394 75.348,342.486 74.878 C 342.570 74.452,340.444 74.419,340.023 74.840 C 339.684 75.178,337.834 73.997,336.534 72.610 C 335.103 71.086,334.722 70.361,335.352 70.361 C 335.518 70.361,335.587 70.295,335.506 70.214 C 335.426 70.133,335.897 69.583,336.553 68.990 C 337.209 68.397,338.097 67.591,338.525 67.199 C 339.221 66.562,339.332 66.531,339.562 66.912 C 339.704 67.147,340.081 67.630,340.399 67.986 C 340.718 68.341,340.979 68.738,340.979 68.867 C 340.979 68.997,341.082 69.039,341.207 68.962 C 341.833 68.575,342.091 70.383,341.520 71.154 C 340.352 72.734,341.530 72.863,343.099 71.327 C 343.715 70.725,344.648 69.894,345.172 69.480 C 346.145 68.713,346.118 67.861,345.131 68.152 C 343.373 68.671,343.371 68.670,341.769 67.113 L 340.229 65.615 341.352 64.509 C 341.969 63.900,342.588 63.402,342.728 63.402 C 342.868 63.402,343.172 63.112,343.404 62.758 C 344.010 61.833,344.309 61.938,345.750 63.582 C 346.457 64.389,347.239 65.227,347.487 65.443 C 347.735 65.659,347.938 66.095,347.938 66.410 C 347.938 66.726,347.735 67.103,347.487 67.247 C 347.239 67.392,347.137 67.514,347.261 67.518 C 347.385 67.522,347.331 67.712,347.142 67.940 C 346.850 68.292,346.870 68.408,347.278 68.706 C 347.711 69.022,347.880 68.924,349.001 67.711 C 350.509 66.079,350.500 66.303,349.117 64.881 C 348.490 64.235,348.055 63.620,348.151 63.513 C 348.246 63.407,348.195 63.393,348.037 63.483 C 347.791 63.624,346.040 61.872,343.876 59.321 C 342.188 57.331,341.682 56.963,341.358 57.487 M55.979 60.361 C 55.809 60.531,55.670 60.599,55.670 60.513 C 55.670 60.267,50.044 65.931,49.571 66.652 C 48.944 67.609,49.515 68.087,50.350 67.303 C 50.923 66.764,52.320 66.715,52.320 67.234 C 52.320 67.481,53.360 68.529,54.913 69.845 C 56.904 71.534,58.386 73.018,58.312 73.251 C 58.276 73.362,58.346 73.425,58.466 73.389 C 59.023 73.225,60.882 75.509,60.719 76.158 C 60.630 76.513,60.443 76.804,60.304 76.804 C 60.165 76.804,60.052 77.036,60.052 77.320 C 60.052 77.627,60.223 77.835,60.478 77.835 C 61.036 77.835,65.206 73.459,65.206 72.874 C 65.206 72.262,64.397 72.298,63.853 72.933 C 63.436 73.420,62.629 73.406,62.629 72.911 C 62.629 72.784,62.456 72.680,62.244 72.680 C 62.033 72.680,61.715 72.448,61.538 72.165 C 61.361 71.881,61.090 71.649,60.935 71.649 C 60.781 71.649,60.506 71.372,60.324 71.034 C 60.143 70.695,59.726 70.274,59.398 70.098 C 58.310 69.516,59.112 68.796,60.758 68.877 C 61.503 68.913,62.112 69.011,62.113 69.095 C 62.113 69.178,62.640 69.266,63.283 69.291 C 63.927 69.315,65.231 69.447,66.183 69.585 C 67.134 69.723,68.008 69.837,68.126 69.840 C 68.387 69.846,70.259 67.921,70.810 67.079 C 71.447 66.107,70.857 65.774,69.814 66.517 C 68.904 67.165,65.477 67.311,64.424 66.748 C 64.164 66.609,63.547 66.495,63.053 66.495 C 62.560 66.495,61.972 66.424,61.748 66.338 C 61.320 66.174,61.175 65.464,61.569 65.464 C 62.619 65.464,61.885 62.317,60.503 60.889 C 59.623 59.979,56.702 59.638,55.979 60.361 M57.216 62.644 C 57.216 62.794,57.338 62.842,57.487 62.750 C 58.636 62.040,59.863 65.360,59.044 66.965 C 58.105 68.805,57.941 68.804,56.061 66.952 C 55.136 66.041,54.332 65.341,54.275 65.399 C 54.082 65.591,53.831 64.441,54.004 64.161 C 54.628 63.151,57.216 61.929,57.216 62.644 M38.918 79.800 C 38.563 80.320,38.157 80.931,38.015 81.158 C 36.997 82.788,35.509 84.794,35.317 84.794 C 35.190 84.794,35.005 85.055,34.905 85.374 C 34.805 85.693,34.445 86.286,34.105 86.693 C 32.530 88.577,32.470 90.274,34.032 88.778 C 34.890 87.956,35.288 87.979,36.474 88.921 C 37.012 89.349,37.869 89.952,38.378 90.261 C 38.887 90.570,39.362 90.897,39.433 90.987 C 39.504 91.076,40.490 91.769,41.624 92.526 C 42.758 93.283,43.744 93.972,43.814 94.057 C 43.885 94.143,44.276 94.425,44.682 94.683 C 45.375 95.125,45.410 95.230,45.255 96.398 C 45.079 97.726,45.472 98.393,45.939 97.559 C 46.078 97.310,46.411 96.888,46.679 96.620 C 46.946 96.353,47.100 96.134,47.021 96.134 C 46.942 96.134,47.406 95.447,48.052 94.607 C 48.698 93.767,49.227 92.952,49.227 92.795 C 49.227 92.638,49.401 92.443,49.613 92.361 C 49.826 92.280,50.004 92.080,50.009 91.918 C 50.015 91.756,50.594 90.870,51.296 89.948 C 52.614 88.220,52.765 87.828,52.314 87.296 C 52.169 87.125,51.631 86.434,51.119 85.760 C 49.772 83.987,48.885 84.283,49.873 86.176 C 50.576 87.525,49.834 90.409,48.647 90.936 C 48.541 90.984,48.454 91.151,48.454 91.309 C 48.454 91.467,48.146 91.917,47.770 92.309 L 47.087 93.022 46.041 92.194 C 45.466 91.739,44.932 91.362,44.856 91.358 C 44.545 91.339,42.545 89.802,42.536 89.576 C 42.522 89.240,43.805 87.369,44.532 86.662 C 45.188 86.025,45.884 85.931,46.699 86.367 C 47.107 86.585,47.282 86.570,47.452 86.302 C 47.742 85.843,47.743 85.240,47.452 85.420 C 47.326 85.498,47.080 85.389,46.905 85.178 C 46.730 84.967,46.423 84.794,46.223 84.794 C 46.024 84.794,45.793 84.620,45.712 84.407 C 45.630 84.195,45.408 84.021,45.217 84.021 C 45.027 84.021,44.753 83.818,44.608 83.570 C 44.464 83.322,44.342 83.214,44.338 83.330 C 44.333 83.447,44.148 83.360,43.925 83.137 C 43.433 82.645,42.629 82.608,42.451 83.070 C 42.380 83.255,42.579 83.630,42.892 83.901 C 43.628 84.538,43.490 85.297,42.331 86.984 C 41.138 88.721,41.075 88.739,39.717 87.715 C 39.065 87.223,38.154 86.586,37.693 86.298 C 36.678 85.663,36.675 85.618,37.564 84.448 C 37.954 83.935,38.654 82.991,39.119 82.351 C 39.987 81.156,41.222 80.758,41.916 81.452 C 42.188 81.724,43.041 81.536,43.041 81.204 C 43.041 80.951,41.804 79.897,41.506 79.897 C 41.372 79.897,41.170 79.732,41.057 79.531 C 40.579 78.682,39.596 78.805,38.918 79.800 M360.309 79.139 C 360.309 79.289,360.193 79.340,360.052 79.253 C 359.910 79.165,359.794 79.274,359.794 79.495 C 359.794 79.716,359.908 79.897,360.047 79.897 C 360.186 79.897,360.375 80.197,360.467 80.563 C 360.625 81.196,359.436 82.732,358.787 82.732 C 358.676 82.732,358.248 83.022,357.836 83.376 C 357.425 83.730,356.943 84.020,356.765 84.020 C 356.588 84.020,356.443 84.134,356.443 84.272 C 356.443 84.500,355.091 85.335,354.764 85.308 C 354.688 85.302,354.355 85.590,354.023 85.947 C 353.692 86.305,353.289 86.598,353.128 86.598 C 352.967 86.598,352.631 86.802,352.382 87.051 C 352.132 87.301,351.477 87.771,350.926 88.096 L 349.923 88.688 349.027 88.050 C 347.860 87.219,347.216 87.399,347.867 88.373 C 350.797 92.757,351.411 93.557,351.843 93.557 C 352.426 93.557,352.484 92.726,351.933 92.268 C 351.208 91.666,352.054 90.535,353.995 89.511 C 354.420 89.287,354.826 89.021,354.897 88.920 C 354.968 88.819,355.299 88.593,355.633 88.417 C 356.818 87.792,356.882 88.438,355.917 91.303 C 355.428 92.755,355.018 94.001,355.005 94.072 C 354.993 94.143,354.847 94.528,354.682 94.927 C 354.517 95.326,354.381 95.761,354.381 95.893 C 354.381 96.026,354.288 96.134,354.174 96.134 C 353.946 96.134,353.911 97.473,354.132 97.680 C 354.692 98.205,356.186 100.239,356.186 100.478 C 356.186 100.877,356.888 100.855,357.027 100.451 C 357.088 100.274,357.024 99.799,356.886 99.396 C 356.540 98.389,356.817 96.074,357.389 95.202 C 357.648 94.806,357.822 94.476,357.775 94.470 C 357.637 94.452,358.042 92.936,358.261 92.655 C 358.371 92.513,358.467 92.307,358.473 92.198 C 358.519 91.458,358.957 91.185,359.563 91.520 C 359.902 91.708,360.267 91.837,360.374 91.807 C 360.480 91.777,360.567 91.869,360.567 92.010 C 360.567 92.531,363.153 92.296,364.007 91.699 C 364.799 91.144,365.587 90.252,365.591 89.905 C 365.592 89.811,365.680 89.647,365.786 89.540 C 366.057 89.269,366.028 87.174,365.751 87.003 C 365.625 86.925,365.445 86.448,365.350 85.943 C 365.255 85.438,365.010 84.960,364.805 84.882 C 364.601 84.803,364.430 84.606,364.426 84.444 C 364.420 84.190,363.039 82.207,361.708 80.541 C 361.481 80.258,361.193 79.765,361.067 79.446 C 360.833 78.855,360.309 78.643,360.309 79.139 M362.981 85.046 C 364.812 87.813,361.369 91.111,358.979 88.879 C 358.577 88.503,358.243 88.271,358.237 88.363 C 358.231 88.455,358.049 88.202,357.831 87.800 C 357.396 86.999,357.519 86.816,359.021 86.033 C 359.375 85.848,359.726 85.615,359.801 85.516 C 360.057 85.176,361.726 84.065,362.015 84.043 C 362.173 84.031,362.608 84.482,362.981 85.046 M25.598 100.475 C 25.163 100.762,23.403 104.606,23.577 104.889 C 23.826 105.291,24.170 105.211,24.770 104.611 L 25.314 104.067 26.639 105.462 C 27.368 106.229,28.544 107.530,29.253 108.353 C 29.961 109.176,30.831 110.178,31.186 110.580 C 32.700 112.300,32.972 112.169,28.313 111.967 C 22.586 111.719,21.781 111.508,21.770 110.258 C 21.753 108.396,21.226 108.721,19.807 111.469 C 19.367 112.320,18.913 113.052,18.797 113.097 C 18.681 113.141,18.650 113.344,18.728 113.548 C 18.806 113.751,18.755 113.918,18.614 113.918 C 18.220 113.918,18.019 115.032,18.373 115.257 C 18.897 115.591,19.287 115.489,19.450 114.975 C 19.547 114.672,19.946 114.423,20.508 114.318 C 21.386 114.153,26.988 114.471,34.343 115.103 C 37.153 115.344,36.990 114.489,33.519 110.784 C 33.299 110.549,32.743 109.911,32.285 109.366 C 31.826 108.822,31.204 108.086,30.902 107.732 C 30.601 107.378,30.050 106.682,29.677 106.186 C 29.305 105.689,28.614 104.943,28.142 104.526 C 27.074 103.585,26.540 102.579,26.497 101.427 C 26.464 100.545,26.091 100.150,25.598 100.475 M374.227 106.464 C 374.227 106.575,373.980 106.745,373.678 106.841 C 372.927 107.079,371.631 108.266,371.808 108.553 C 371.887 108.681,371.813 108.952,371.644 109.156 C 371.475 109.360,371.295 109.906,371.244 110.369 C 371.194 110.832,371.032 112.405,370.886 113.864 C 370.565 117.047,370.029 118.041,368.635 118.041 C 367.679 118.041,366.237 116.957,366.237 116.237 C 366.237 116.001,366.155 115.725,366.054 115.625 C 365.753 115.324,365.990 113.317,366.403 112.676 C 367.055 111.663,367.626 111.082,367.970 111.082 C 368.438 111.082,368.379 110.324,367.896 110.139 C 367.675 110.054,366.602 110.420,365.512 110.953 C 364.423 111.486,363.370 111.998,363.174 112.092 C 362.655 112.338,362.736 112.721,363.369 113.013 C 363.862 113.241,364.343 114.041,364.239 114.460 C 363.919 115.751,366.467 119.845,367.590 119.845 C 367.838 119.845,368.041 119.961,368.041 120.103 C 368.041 120.245,368.679 120.361,369.459 120.361 C 370.238 120.361,370.876 120.268,370.876 120.155 C 370.876 120.042,371.262 119.810,371.733 119.639 C 372.831 119.242,373.711 117.572,373.711 115.887 C 373.711 115.229,373.798 114.690,373.905 114.689 C 374.011 114.688,374.121 113.708,374.149 112.510 C 374.235 108.882,375.326 107.735,377.399 109.093 C 379.060 110.182,378.574 115.066,376.862 114.495 C 376.518 114.381,376.158 115.559,376.411 115.969 C 376.529 116.159,376.796 116.133,377.273 115.883 C 377.653 115.684,378.752 115.140,379.716 114.674 C 381.878 113.630,382.190 113.112,380.816 112.852 C 380.414 112.775,380.255 112.386,379.993 110.829 C 379.814 109.769,379.538 108.858,379.379 108.805 C 379.220 108.752,378.985 108.431,378.856 108.092 C 378.727 107.752,378.444 107.474,378.228 107.474 C 378.012 107.474,377.835 107.366,377.835 107.234 C 377.835 106.939,377.224 106.736,375.527 106.468 C 374.812 106.355,374.227 106.353,374.227 106.464 M12.887 127.964 C 12.887 128.177,12.779 128.351,12.647 128.351 C 12.516 128.351,12.265 128.988,12.091 129.768 C 11.916 130.548,11.676 131.186,11.557 131.186 C 11.438 131.186,11.361 131.273,11.386 131.379 C 11.411 131.485,11.286 132.080,11.109 132.700 C 10.868 133.545,10.861 133.901,11.081 134.118 C 11.375 134.407,11.468 134.328,12.471 132.939 C 12.794 132.492,15.043 132.978,15.493 133.592 C 15.579 133.710,15.753 133.811,15.879 133.816 C 16.005 133.821,16.377 133.927,16.705 134.051 C 17.033 134.176,17.479 134.278,17.697 134.278 C 17.914 134.278,18.458 134.444,18.904 134.647 C 19.351 134.850,20.745 135.368,22.001 135.799 C 24.447 136.636,25.066 137.133,24.900 138.128 C 24.665 139.537,25.601 139.771,25.907 138.381 C 25.998 137.967,26.164 137.629,26.276 137.629 C 26.389 137.629,26.555 137.165,26.645 136.598 C 26.736 136.031,26.903 135.567,27.016 135.567 C 27.129 135.567,27.373 134.977,27.558 134.256 C 28.014 132.478,27.590 131.981,26.647 133.186 C 26.287 133.645,25.857 134.021,25.690 134.022 C 25.384 134.022,19.350 131.920,17.912 131.312 C 17.487 131.132,16.501 130.802,15.722 130.580 C 14.109 130.120,13.352 129.447,13.746 128.822 C 13.886 128.601,13.927 128.231,13.838 127.999 C 13.635 127.470,12.887 127.443,12.887 127.964 M8.299 128.918 C 7.443 129.773,8.266 131.186,9.620 131.186 C 10.888 131.186,11.420 130.037,10.695 128.865 C 10.473 128.505,8.672 128.544,8.299 128.918 M387.044 129.450 C 386.969 129.643,386.968 130.113,387.041 130.495 C 387.195 131.298,386.748 131.959,386.051 131.959 C 385.785 131.959,385.567 132.087,385.567 132.244 C 385.567 132.401,385.397 132.464,385.189 132.384 C 384.981 132.304,384.749 132.338,384.674 132.460 C 384.541 132.675,381.928 133.391,381.730 133.267 C 381.675 133.232,381.559 133.307,381.472 133.433 C 381.385 133.559,380.329 133.984,379.124 134.377 C 377.919 134.770,376.759 135.159,376.546 135.241 C 376.334 135.324,376.073 135.373,375.966 135.350 C 375.860 135.328,375.773 135.425,375.773 135.567 C 375.773 135.709,375.559 135.825,375.298 135.825 C 374.733 135.825,373.853 134.932,374.071 134.579 C 374.263 134.269,373.577 133.990,373.085 134.178 C 372.776 134.297,372.796 134.506,373.214 135.480 C 373.487 136.118,373.711 136.921,373.711 137.264 C 373.711 137.606,373.819 137.887,373.951 137.887 C 374.082 137.887,374.333 138.524,374.507 139.304 C 374.806 140.642,374.868 140.722,375.608 140.722 C 376.218 140.722,376.323 140.653,376.082 140.412 C 375.006 139.336,375.864 138.440,378.866 137.508 C 379.646 137.266,380.631 136.918,381.057 136.735 C 382.276 136.211,386.191 134.939,386.405 134.998 C 386.511 135.027,386.598 134.949,386.598 134.824 C 386.598 134.551,387.850 134.280,388.306 134.455 C 388.483 134.523,388.703 134.917,388.793 135.331 C 388.961 136.094,389.916 136.440,389.978 135.760 C 390.035 135.139,389.896 134.405,389.668 134.126 C 389.541 133.971,389.514 133.768,389.607 133.675 C 389.700 133.581,389.652 133.505,389.499 133.505 C 389.346 133.505,389.142 133.041,389.046 132.474 C 388.951 131.907,388.783 131.443,388.674 131.443 C 388.565 131.443,388.372 130.952,388.245 130.351 C 388.014 129.257,387.318 128.734,387.044 129.450 M6.732 146.979 C 6.573 147.138,6.443 147.512,6.443 147.809 C 6.443 148.107,6.346 148.461,6.227 148.595 C 5.968 148.889,5.336 152.329,5.510 152.503 C 5.816 152.810,6.616 152.245,6.885 151.532 C 7.200 150.698,7.925 150.639,9.794 151.297 C 10.148 151.421,10.786 151.578,11.211 151.644 C 13.945 152.071,15.979 152.578,15.979 152.833 C 15.979 152.998,13.847 154.091,6.959 157.458 C 4.612 158.605,3.322 159.461,3.559 159.713 C 3.693 159.856,3.338 162.216,3.120 162.629 C 2.879 163.086,3.030 163.660,3.390 163.660 C 3.756 163.660,4.387 162.978,4.197 162.788 C 4.110 162.701,4.165 162.629,4.321 162.629 C 4.477 162.629,4.673 162.413,4.756 162.150 C 5.047 161.235,8.133 161.065,9.407 161.895 C 9.549 161.987,10.071 162.128,10.567 162.209 C 12.382 162.503,16.637 163.494,17.332 163.785 C 17.661 163.922,17.784 164.268,17.784 165.062 C 17.784 166.740,18.418 166.473,18.920 164.583 C 19.675 161.740,19.824 160.543,19.441 160.396 C 19.005 160.228,18.501 160.527,18.695 160.839 C 19.020 161.365,17.849 162.187,17.090 161.966 C 16.692 161.849,16.250 161.733,16.108 161.706 C 15.966 161.679,15.793 161.633,15.722 161.602 C 15.651 161.572,15.303 161.501,14.948 161.445 C 12.718 161.095,11.082 160.696,11.082 160.503 C 11.082 160.380,10.987 160.338,10.871 160.409 C 10.755 160.481,10.155 160.391,9.538 160.209 L 8.416 159.877 12.004 158.077 C 13.978 157.086,15.999 156.117,16.495 155.923 C 16.991 155.729,17.455 155.503,17.526 155.421 C 17.817 155.084,19.122 154.350,18.957 154.617 C 18.859 154.776,19.201 154.619,19.718 154.268 C 20.235 153.918,20.868 153.564,21.126 153.482 C 22.762 152.963,21.476 152.031,18.557 151.620 C 18.061 151.550,17.539 151.402,17.397 151.291 C 17.255 151.181,16.269 150.953,15.206 150.785 C 14.143 150.617,12.751 150.320,12.113 150.124 C 11.476 149.929,10.403 149.692,9.729 149.598 C 9.056 149.503,8.505 149.316,8.505 149.182 C 8.505 149.048,8.410 148.998,8.293 149.070 C 8.177 149.142,7.869 148.952,7.608 148.647 C 7.294 148.280,7.235 148.061,7.433 147.995 C 7.850 147.856,7.808 146.991,7.377 146.826 C 7.181 146.751,6.891 146.820,6.732 146.979 M391.896 150.706 C 390.175 150.882,389.737 152.062,391.393 152.062 C 392.674 152.062,393.557 153.003,393.557 154.370 C 393.557 154.992,393.678 155.412,393.857 155.412 C 395.142 155.412,392.574 156.069,388.279 156.838 C 387.148 157.041,386.046 157.282,385.830 157.374 C 385.217 157.635,381.604 158.191,381.292 158.073 C 381.137 158.014,380.847 157.602,380.647 157.156 C 380.016 155.749,379.645 155.964,379.797 157.650 C 379.871 158.475,379.943 159.294,379.957 159.472 C 379.971 159.649,380.063 159.794,380.162 159.794 C 380.260 159.794,380.413 160.345,380.502 161.018 C 380.783 163.146,380.831 163.271,381.396 163.355 C 381.884 163.427,381.941 163.325,381.889 162.463 C 381.825 161.406,382.994 160.499,384.137 160.718 C 384.414 160.772,384.704 160.723,384.782 160.610 C 384.915 160.417,387.092 159.895,388.789 159.650 C 389.214 159.588,390.374 159.354,391.366 159.128 C 394.588 158.396,394.802 158.415,394.707 159.438 C 394.662 159.931,394.730 160.251,394.864 160.169 C 395.242 159.935,395.142 161.032,394.710 161.868 C 394.494 162.287,394.195 162.629,394.047 162.629 C 393.642 162.629,393.041 163.311,393.041 163.770 C 393.041 164.225,393.827 164.317,394.234 163.911 C 394.379 163.765,395.075 163.578,395.780 163.494 C 397.005 163.349,397.633 162.443,396.916 161.856 C 396.830 161.785,396.626 160.973,396.463 160.052 C 396.299 159.130,396.090 158.086,395.998 157.732 C 395.905 157.378,395.665 156.160,395.465 155.026 C 395.264 153.892,394.985 152.763,394.844 152.516 C 394.703 152.270,394.588 151.719,394.588 151.292 C 394.588 150.447,394.536 150.436,391.896 150.706 M1.136 177.126 C 0.738 178.954,0.831 181.830,1.289 181.830 C 1.516 181.830,1.708 181.546,1.755 181.141 C 1.876 180.095,6.351 179.553,8.505 180.324 C 8.718 180.400,9.617 180.462,10.503 180.462 C 11.389 180.462,12.113 180.567,12.113 180.695 C 12.113 180.823,12.318 180.928,12.567 180.928 C 13.065 180.928,14.433 182.081,14.433 182.500 C 14.433 182.644,14.535 182.699,14.659 182.622 C 15.221 182.275,15.367 185.199,14.849 186.438 C 14.083 188.272,13.209 188.501,7.776 188.294 C 5.136 188.193,2.847 188.004,2.689 187.872 C 2.531 187.741,2.341 187.693,2.268 187.766 C 2.011 188.024,1.513 187.140,1.491 186.387 C 1.463 185.382,0.734 185.458,0.482 186.492 C -0.015 188.532,0.091 192.808,0.637 192.729 C 0.972 192.682,1.163 192.457,1.168 192.104 C 1.189 190.742,3.254 190.342,6.443 191.085 C 11.886 192.351,15.928 190.608,16.531 186.736 C 17.487 180.593,14.895 178.608,5.916 178.608 C 4.805 178.608,3.825 178.492,3.737 178.351 C 3.650 178.209,3.394 178.093,3.170 178.093 C 2.638 178.093,2.080 177.342,2.070 176.611 C 2.056 175.605,1.388 175.973,1.136 177.126 M398.368 178.265 C 398.273 178.359,398.196 178.656,398.196 178.924 C 398.196 179.192,398.081 179.341,397.941 179.254 C 397.795 179.164,397.752 179.268,397.840 179.497 C 397.924 179.717,397.882 179.897,397.746 179.897 C 397.610 179.897,397.144 180.236,396.711 180.650 C 396.277 181.065,395.870 181.351,395.806 181.287 C 395.697 181.178,394.634 182.000,393.519 183.054 C 393.256 183.302,392.935 183.505,392.805 183.505 C 392.675 183.505,392.530 183.597,392.483 183.709 C 392.253 184.254,390.328 185.423,389.780 185.352 C 389.447 185.308,389.175 185.368,389.174 185.484 C 389.173 185.601,388.325 185.730,387.291 185.772 C 385.262 185.855,385.138 185.775,384.659 184.071 C 384.080 182.008,383.611 185.616,383.996 189.173 C 384.169 190.769,385.048 191.482,385.055 190.032 C 385.063 188.681,385.319 188.552,388.195 188.456 C 391.066 188.361,391.041 188.353,395.039 190.729 C 395.499 191.003,395.876 191.166,395.876 191.093 C 395.876 191.019,396.021 191.082,396.198 191.231 C 396.376 191.381,397.022 191.857,397.636 192.289 C 398.275 192.738,398.915 193.466,399.135 193.993 C 399.773 195.520,400.075 194.699,399.957 191.758 C 399.846 189.015,399.329 187.820,398.916 189.356 C 398.815 189.728,398.593 190.120,398.422 190.225 C 398.153 190.392,394.943 189.060,394.588 188.634 C 394.420 188.433,393.221 187.779,392.998 187.767 C 392.255 187.727,393.159 186.375,393.946 186.349 C 394.089 186.344,394.351 186.108,394.528 185.825 C 394.705 185.541,394.977 185.309,395.133 185.309 C 395.377 185.309,395.958 184.901,397.371 183.736 C 397.883 183.315,398.407 183.650,398.499 184.456 C 398.623 185.534,399.625 185.489,399.585 184.407 C 399.569 183.982,399.515 182.474,399.464 181.057 C 399.370 178.449,399.036 177.597,398.368 178.265 M-0.000 211.856 L 0.000 217.526 199.876 217.526 L 399.752 217.526 399.683 211.920 L 399.613 206.314 199.807 206.250 L -0.000 206.185 -0.000 211.856 M19.492 220.425 C 19.407 220.744,19.335 223.296,19.333 226.095 L 19.330 231.186 199.618 231.186 L 379.907 231.186 379.838 225.580 L 379.768 219.974 199.708 219.910 L 19.648 219.845 19.492 220.425 M37.719 233.641 C 37.664 233.787,37.649 236.280,37.688 239.182 L 37.758 244.459 199.871 244.459 L 361.985 244.459 361.985 238.982 L 361.985 233.504 199.903 233.440 C 89.188 233.397,37.789 233.460,37.719 233.641 M56.701 252.191 L 56.701 257.732 199.871 257.732 L 343.041 257.732 343.041 252.191 L 343.041 246.649 199.871 246.649 L 56.701 246.649 56.701 252.191 " stroke="none" fill="#34647c" fill-rule="evenodd"></path><path id="path2" d="" stroke="none" fill="#b0546c" fill-rule="evenodd"></path><path id="path3" d="M151.369 73.325 C 151.370 74.175,151.418 74.492,151.475 74.029 C 151.533 73.566,151.532 72.870,151.473 72.482 C 151.414 72.095,151.367 72.474,151.369 73.325 " stroke="none" fill="#54546c" fill-rule="evenodd"></path><path id="path4" d="M202.393 2.706 C 202.395 3.415,202.445 3.674,202.505 3.283 C 202.564 2.891,202.562 2.311,202.501 1.994 C 202.440 1.677,202.391 1.997,202.393 2.706 M167.014 3.759 C 167.016 4.030,167.136 4.427,167.280 4.639 C 167.471 4.922,167.495 4.817,167.368 4.253 C 167.157 3.305,167.009 3.099,167.014 3.759 M203.771 5.633 C 203.381 6.064,203.378 6.145,203.737 6.443 C 204.073 6.722,204.110 6.707,203.972 6.348 C 203.882 6.113,203.951 5.749,204.126 5.538 C 204.585 4.985,204.284 5.065,203.771 5.633 M201.465 7.216 C 202.025 7.832,202.318 8.446,202.388 9.149 L 202.491 10.180 202.534 9.136 C 202.571 8.232,202.447 7.971,201.611 7.203 L 200.644 6.314 201.465 7.216 M143.695 11.325 C 143.613 11.458,143.780 11.549,144.067 11.527 C 144.353 11.506,144.588 11.397,144.588 11.285 C 144.588 11.000,143.876 11.032,143.695 11.325 M135.472 13.273 C 135.669 14.183,135.728 14.282,135.905 13.996 C 135.978 13.878,135.873 13.494,135.671 13.141 L 135.305 12.500 135.472 13.273 M145.029 13.406 C 145.229 14.169,145.565 14.269,145.422 13.523 C 145.355 13.173,145.209 12.887,145.097 12.887 C 144.985 12.887,144.955 13.120,145.029 13.406 M116.502 16.485 C 116.294 16.617,116.186 16.788,116.263 16.865 C 116.341 16.942,116.627 16.836,116.900 16.629 C 117.444 16.218,117.113 16.098,116.502 16.485 M145.995 16.479 C 146.078 16.612,145.939 16.840,145.688 16.987 C 145.437 17.133,145.354 17.256,145.503 17.260 C 145.818 17.269,146.392 16.743,146.392 16.443 C 146.392 16.330,146.269 16.237,146.119 16.237 C 145.969 16.237,145.913 16.346,145.995 16.479 M282.990 16.421 C 283.202 16.500,283.608 16.671,283.892 16.802 C 284.399 17.035,284.399 17.032,283.907 16.638 C 283.632 16.417,283.226 16.246,283.005 16.257 C 282.658 16.275,282.656 16.297,282.990 16.421 M250.279 17.229 C 249.858 18.016,249.945 18.235,250.413 17.566 C 250.640 17.242,250.765 16.917,250.691 16.843 C 250.618 16.769,250.432 16.943,250.279 17.229 M272.966 17.732 C 272.613 18.391,272.595 18.828,272.942 18.299 C 273.168 17.955,273.224 17.955,273.450 18.299 C 273.675 18.643,273.703 18.643,273.703 18.299 C 273.703 17.491,273.272 17.159,272.966 17.732 M248.714 18.529 C 248.343 18.632,248.191 18.781,248.354 18.882 C 248.509 18.977,248.855 18.889,249.124 18.686 C 249.663 18.278,249.643 18.270,248.714 18.529 M285.567 18.830 C 285.567 18.963,285.799 19.072,286.082 19.072 C 286.366 19.072,286.598 18.981,286.598 18.869 C 286.598 18.758,286.366 18.649,286.082 18.628 C 285.799 18.606,285.567 18.698,285.567 18.830 M94.989 28.069 C 94.910 28.197,95.089 28.239,95.387 28.161 C 95.705 28.078,96.023 28.167,96.156 28.378 C 96.338 28.665,96.385 28.647,96.388 28.286 C 96.392 27.804,95.261 27.628,94.989 28.069 M304.550 29.446 C 304.715 29.713,305.351 29.689,305.524 29.409 C 305.603 29.282,305.389 29.195,305.049 29.216 C 304.709 29.236,304.485 29.340,304.550 29.446 M116.753 33.290 C 116.753 33.598,116.833 33.768,116.932 33.670 C 117.210 33.391,117.250 32.732,116.988 32.732 C 116.858 32.732,116.753 32.983,116.753 33.290 M320.619 38.748 C 320.973 39.151,321.495 39.600,321.778 39.746 C 322.321 40.026,322.305 40.009,320.877 38.787 L 319.976 38.015 320.619 38.748 M98.238 43.525 C 97.761 43.827,97.967 44.950,98.518 45.055 C 98.766 45.102,98.969 45.020,98.969 44.872 C 98.969 44.725,98.795 44.671,98.582 44.752 C 98.021 44.967,98.080 43.908,98.647 43.577 C 98.895 43.433,98.982 43.313,98.840 43.311 C 98.698 43.309,98.427 43.405,98.238 43.525 M79.785 45.130 C 79.958 45.410,80.594 45.435,80.759 45.168 C 80.825 45.061,80.600 44.958,80.260 44.937 C 79.921 44.917,79.707 45.004,79.785 45.130 M86.658 51.031 C 86.658 51.527,86.711 51.730,86.776 51.482 C 86.840 51.234,86.840 50.828,86.776 50.580 C 86.711 50.332,86.658 50.535,86.658 51.031 M75.838 51.216 C 76.227 51.275,76.865 51.275,77.255 51.216 C 77.645 51.156,77.326 51.108,76.546 51.108 C 75.767 51.108,75.448 51.156,75.838 51.216 M53.682 62.012 C 53.368 62.351,53.203 62.629,53.315 62.629 C 53.427 62.629,53.791 62.339,54.124 61.985 C 54.457 61.630,54.622 61.352,54.491 61.367 C 54.360 61.382,53.996 61.672,53.682 62.012 M339.289 62.221 C 339.014 62.422,338.858 62.655,338.941 62.738 C 339.024 62.822,339.303 62.657,339.560 62.373 C 340.108 61.768,339.996 61.705,339.289 62.221 M347.165 63.015 C 348.281 64.167,348.417 64.167,347.498 63.015 C 347.102 62.519,346.669 62.113,346.534 62.113 C 346.400 62.113,346.684 62.519,347.165 63.015 M340.492 65.301 C 340.272 65.566,340.281 65.720,340.525 65.923 C 340.772 66.128,340.851 66.043,340.851 65.571 C 340.851 64.840,340.865 64.851,340.492 65.301 M334.467 66.753 C 334.224 67.036,334.115 67.268,334.224 67.268 C 334.332 67.268,334.620 67.036,334.863 66.753 C 335.106 66.469,335.215 66.237,335.106 66.237 C 334.997 66.237,334.710 66.469,334.467 66.753 M338.759 67.076 C 338.492 67.390,338.447 67.518,338.660 67.363 C 338.872 67.207,339.215 67.027,339.420 66.963 C 339.660 66.889,339.695 66.786,339.519 66.677 C 339.368 66.583,339.026 66.763,338.759 67.076 M342.010 67.397 C 342.491 67.893,342.931 68.299,342.988 68.299 C 343.205 68.299,341.612 66.531,341.380 66.513 C 341.246 66.503,341.529 66.901,342.010 67.397 M349.358 67.265 C 348.952 67.689,348.674 68.090,348.740 68.155 C 348.805 68.221,349.179 67.875,349.569 67.385 C 350.443 66.290,350.345 66.235,349.358 67.265 M59.601 68.992 C 59.849 69.057,60.255 69.057,60.503 68.992 C 60.751 68.927,60.548 68.874,60.052 68.874 C 59.555 68.874,59.352 68.927,59.601 68.992 M65.236 72.822 C 65.220 73.113,65.091 73.490,64.949 73.661 C 64.808 73.831,64.877 73.810,65.103 73.614 C 65.329 73.417,65.458 73.040,65.390 72.775 C 65.278 72.341,65.263 72.346,65.236 72.822 M57.990 72.761 C 57.990 72.805,58.367 73.182,58.827 73.599 L 59.665 74.356 58.908 73.518 C 58.202 72.737,57.990 72.562,57.990 72.761 M49.742 84.462 C 49.955 84.541,50.276 84.722,50.457 84.865 C 50.702 85.059,50.744 85.018,50.623 84.701 C 50.533 84.469,50.212 84.288,49.908 84.299 C 49.531 84.313,49.478 84.364,49.742 84.462 M47.538 92.290 C 47.442 92.445,47.146 92.513,46.878 92.443 C 46.302 92.293,46.270 92.362,46.739 92.751 C 47.004 92.971,47.197 92.917,47.552 92.525 C 47.808 92.242,47.949 92.010,47.864 92.010 C 47.780 92.010,47.633 92.136,47.538 92.290 M41.881 92.890 C 42.307 93.255,42.761 93.555,42.891 93.555 C 43.170 93.557,43.167 93.554,42.010 92.808 L 41.108 92.225 41.881 92.890 M27.006 103.225 C 27.152 103.510,27.544 103.973,27.876 104.254 C 28.458 104.746,28.457 104.737,27.839 103.993 C 26.813 102.757,26.726 102.677,27.006 103.225 M374.485 106.287 C 374.485 106.343,374.948 106.433,375.515 106.487 C 376.082 106.542,376.546 106.496,376.546 106.386 C 376.546 106.276,376.082 106.186,375.515 106.186 C 374.948 106.186,374.485 106.231,374.485 106.287 M380.220 111.727 C 380.222 112.294,380.275 112.495,380.337 112.175 C 380.399 111.854,380.396 111.390,380.332 111.144 C 380.267 110.897,380.217 111.160,380.220 111.727 M22.680 111.440 C 22.680 111.495,23.022 111.590,23.440 111.651 C 23.858 111.712,24.141 111.667,24.069 111.551 C 23.941 111.345,22.680 111.243,22.680 111.440 M374.034 113.531 C 374.037 114.098,374.090 114.300,374.151 113.979 C 374.213 113.658,374.211 113.194,374.146 112.948 C 374.082 112.702,374.031 112.964,374.034 113.531 M28.291 114.878 C 28.754 114.935,29.450 114.934,29.837 114.875 C 30.224 114.816,29.845 114.769,28.995 114.771 C 28.144 114.772,27.827 114.820,28.291 114.878 M26.804 132.419 C 26.804 132.530,27.036 132.622,27.320 132.622 C 27.603 132.622,27.835 132.530,27.835 132.419 C 27.835 132.308,27.603 132.216,27.320 132.216 C 27.036 132.216,26.804 132.308,26.804 132.419 M18.041 134.530 C 18.041 134.642,18.328 134.788,18.678 134.855 C 19.028 134.922,19.262 134.892,19.197 134.788 C 19.026 134.511,18.041 134.291,18.041 134.530 M387.178 134.460 C 386.859 134.522,386.598 134.672,386.598 134.794 C 386.598 134.916,386.917 134.926,387.307 134.815 C 387.697 134.705,388.189 134.664,388.402 134.724 C 388.746 134.821,388.746 134.803,388.402 134.560 C 388.189 134.409,387.957 134.300,387.887 134.317 C 387.816 134.335,387.497 134.399,387.178 134.460 M21.392 135.825 C 21.604 135.962,21.952 136.075,22.165 136.075 C 22.509 136.075,22.509 136.047,22.165 135.825 C 21.952 135.687,21.604 135.575,21.392 135.575 C 21.048 135.575,21.048 135.603,21.392 135.825 M21.459 152.225 C 21.709 152.298,21.847 152.466,21.766 152.597 C 21.685 152.728,21.752 152.835,21.913 152.835 C 22.409 152.835,22.027 152.194,21.499 152.141 C 21.082 152.099,21.076 152.112,21.459 152.225 M15.237 152.999 C 14.928 153.348,14.943 153.389,15.344 153.312 C 15.599 153.262,15.856 153.077,15.915 152.899 C 16.063 152.455,15.667 152.513,15.237 152.999 M393.312 158.590 C 393.578 158.821,394.845 159.014,394.845 158.823 C 394.845 158.708,394.475 158.587,394.021 158.552 C 393.568 158.517,393.249 158.534,393.312 158.590 M387.887 159.806 C 387.604 159.997,387.709 160.021,388.273 159.894 C 389.221 159.682,389.427 159.535,388.767 159.540 C 388.495 159.542,388.099 159.662,387.887 159.806 M18.557 160.265 C 18.557 160.383,18.818 160.470,19.137 160.459 C 19.471 160.447,19.689 160.575,19.652 160.760 C 19.617 160.937,19.704 161.082,19.845 161.082 C 20.261 161.082,20.141 160.379,19.695 160.208 C 19.117 159.986,18.557 160.014,18.557 160.265 M17.467 164.884 C 17.616 166.380,17.741 166.489,17.763 165.142 C 17.774 164.468,17.691 163.918,17.578 163.918 C 17.464 163.918,17.415 164.352,17.467 164.884 M0.773 177.448 C 0.773 177.803,0.818 178.093,0.872 178.093 C 0.926 178.093,1.026 177.803,1.094 177.448 C 1.162 177.094,1.117 176.804,0.995 176.804 C 0.873 176.804,0.773 177.094,0.773 177.448 M9.601 180.597 C 9.990 180.656,10.628 180.656,11.018 180.597 C 11.408 180.538,11.089 180.490,10.309 180.490 C 9.530 180.490,9.211 180.538,9.601 180.597 M16.624 184.794 C 16.624 185.644,16.711 186.340,16.817 186.340 C 16.923 186.340,17.010 185.644,17.010 184.794 C 17.010 183.943,16.923 183.247,16.817 183.247 C 16.711 183.247,16.624 183.943,16.624 184.794 M385.309 185.619 C 385.309 185.732,385.860 185.816,386.534 185.804 C 387.881 185.782,387.772 185.657,386.276 185.509 C 385.744 185.456,385.309 185.505,385.309 185.619 M398.741 188.961 C 398.725 189.197,398.645 189.603,398.563 189.863 C 398.422 190.310,398.430 190.311,398.709 189.876 C 398.871 189.623,398.951 189.217,398.887 188.974 C 398.783 188.575,398.768 188.574,398.741 188.961 M4.897 191.015 C 4.897 191.137,5.187 191.237,5.541 191.237 C 5.896 191.237,6.186 191.193,6.186 191.138 C 6.186 191.084,5.896 190.984,5.541 190.916 C 5.187 190.849,4.897 190.893,4.897 191.015 M37.371 238.918 C 37.371 242.036,37.458 244.588,37.564 244.588 C 37.671 244.588,37.758 242.036,37.758 238.918 C 37.758 235.799,37.671 233.247,37.564 233.247 C 37.458 233.247,37.371 235.799,37.371 238.918 M118.858 233.441 C 163.321 233.477,236.156 233.477,280.713 233.441 C 325.271 233.405,288.892 233.375,199.871 233.375 C 110.851 233.375,74.394 233.405,118.858 233.441 " stroke="none" fill="#34686c" fill-rule="evenodd"></path></g></svg>